<?xml version="1.0" encoding="utf-8"?>
<!-- Generator: Adobe Illustrator 21.0.0, SVG Export Plug-In . SVG Version: 6.00 Build 0)  -->
<svg version="1.1" id="Layer_1" xmlns="http://www.w3.org/2000/svg" xmlns:xlink="http://www.w3.org/1999/xlink" x="0px" y="0px"
	 viewBox="0 0 1011.4 207.7" style="enable-background:new 0 0 1011.4 207.7;" xml:space="preserve">
<style type="text/css">
	.st0{fill:#F4BF8C;}
	.st1{filter:url(#Adobe_OpacityMaskFilter);}
	.st2{clip-path:url(#SVGID_2_);fill:url(#SVGID_4_);}
	.st3{clip-path:url(#SVGID_2_);mask:url(#SVGID_3_);fill:url(#SVGID_5_);}
	.st4{filter:url(#Adobe_OpacityMaskFilter_1_);}
	.st5{clip-path:url(#SVGID_7_);fill:url(#SVGID_9_);}
	.st6{clip-path:url(#SVGID_7_);mask:url(#SVGID_8_);fill:url(#SVGID_10_);}
	.st7{clip-path:url(#SVGID_12_);fill:url(#SVGID_13_);}
	.st8{clip-path:url(#SVGID_15_);fill:url(#SVGID_16_);}
	.st9{clip-path:url(#SVGID_18_);fill:url(#SVGID_19_);}
	.st10{clip-path:url(#SVGID_21_);fill:url(#SVGID_22_);}
	.st11{clip-path:url(#SVGID_24_);fill:url(#SVGID_25_);}
	.st12{clip-path:url(#SVGID_27_);fill:url(#SVGID_28_);}
	.st13{clip-path:url(#SVGID_30_);fill:url(#SVGID_31_);}
	.st14{clip-path:url(#SVGID_33_);fill:url(#SVGID_34_);}
	.st15{clip-path:url(#SVGID_36_);fill:url(#SVGID_37_);}
	.st16{clip-path:url(#SVGID_39_);fill:url(#SVGID_40_);}
	.st17{clip-path:url(#SVGID_42_);fill:url(#SVGID_43_);}
	.st18{clip-path:url(#SVGID_45_);fill:url(#SVGID_46_);}
	.st19{clip-path:url(#SVGID_48_);fill:url(#SVGID_49_);}
	.st20{clip-path:url(#SVGID_51_);fill:url(#SVGID_52_);}
	.st21{clip-path:url(#SVGID_54_);fill:url(#SVGID_55_);}
	.st22{clip-path:url(#SVGID_57_);fill:url(#SVGID_58_);}
</style>
<g>
	<path class="st0" d="M437.6,180.3c-0.7,6.5-4.1,9.8-10.1,9.8c-6.1-0.1-10-4.9-10-12.1c0-7.2,4-11.9,10.2-11.9
		c4.5,0,7.7,2.3,8.8,6.3l0.1,0.5h1.6l-0.9-6.4l-0.2-0.2c-1.8-1.2-5-2.7-9.3-2.7c-8.6,0-14.4,5.8-14.4,14.4c0,8.6,5.7,14.4,14.2,14.5
		c4.9,0,8.8-2.1,11.2-6l0.1-0.1l0.5-6.8h-1.6L437.6,180.3z"/>
	<path class="st0" d="M475.6,163.8c-8.5,0-14.3,5.8-14.3,14.4c0,8.6,5.7,14.4,14.3,14.4c8.5,0,14.3-5.8,14.3-14.4
		C489.9,169.6,484.1,163.8,475.6,163.8 M475.6,166.2c6,0,10,4.8,10,12c0,7.2-4,12-10,12c-6,0-10-4.8-10-12
		C465.6,171.1,469.6,166.2,475.6,166.2"/>
	<path class="st0" d="M530.9,166h1.4c0.9,0,1.7,0.7,1.7,1.6v17.1l-19.6-21h-1.4l0.1,0.8c0,0,0.3,2.1,0.3,4.6v19.6
		c0,0.9-0.8,1.6-1.7,1.6h-1.4l0,1.7h9.1l0-1.7H518c-0.9,0-1.6-0.7-1.7-1.6v-17.2l19.7,21h0.6h0.8l-0.1-0.8c0,0-0.3-2.4-0.3-4.7
		v-19.5c0-0.9,0.8-1.6,1.7-1.6h1.4l0-1.7h-9.1L530.9,166z"/>
	<path class="st0" d="M566.9,172.9c-1.2-1.1-1.3-2.5-1.3-3c0-1.8,1.4-3.7,4-3.7c1.1,0,2.1,0.4,2.7,1c0.6,0.6,0.9,1.3,0.9,2.2l0,0.7
		h1.7v-6h-2.1c-1.1-0.2-2.4-0.4-3.3-0.4c-4.7,0-7.3,3.6-7.3,7c0,2,0.8,3.9,2.3,5.2l7.2,6.7c0.8,0.8,1.3,1.8,1.3,3
		c0,2.9-2.3,4.3-4.4,4.4c-1.4,0.1-2.7-0.4-3.5-1.3c-1-1-1.4-2.5-1.2-4.2l0.1-0.7h-1.5l-0.1,0.4c-0.6,1.7-0.8,4.3-0.5,5.6l0,0.2
		l0.1,0.1c1.7,1.8,5.1,2.3,6.9,2.3c4.6,0,7.7-3.1,7.7-7.7c0-2.1-0.7-3.8-2.1-5.1L566.9,172.9z"/>
	<path class="st0" d="M617,166h1.3c0.7,0,1.3,0.5,1.3,1.2v14.9c0,4.9-3.1,8-7.8,8c-4.5,0-7.4-3.3-7.4-8.5v-14.4
		c0-0.7,0.6-1.2,1.3-1.2h1.3v-1.7h-9v1.7h1.3c0.8,0,1.3,0.5,1.3,1.2v14.9c0,6.3,4.5,10.5,11.2,10.5c6.5,0,10.9-4.2,10.9-10.5v-14.9
		c0-0.7,0.6-1.2,1.3-1.2h1.3v-1.7H617V166z"/>
	<path class="st0" d="M664.1,185.1c-1.2,2.9-2.5,4.5-6.1,4.5h-4.8v-21.9c0-1,0.8-1.7,1.8-1.7h1.1l0-1.7h-9.6l0,1.7h1.1
		c1,0,1.8,0.8,1.8,1.7v20.9c0,1-0.8,1.7-1.8,1.7h-1.1l0,1.7h16.8l2.7-7.4l-1.8,0L664.1,185.1z"/>
	<path class="st0" d="M699.1,164.3h-12.8c-1.6,0-3.7-0.4-4.3-0.6l-0.9-0.4v6.4l1.7,0v-1.3c0-0.9,0.7-1.6,1.5-1.6h6.5v22
		c0,0.9-0.8,1.7-1.8,1.7H688l0,1.7h9.6l0-1.7h-1.1c-1,0-1.7-0.8-1.8-1.7v-22h6.5c0.9,0,1.5,0.7,1.5,1.6v1.3l1.7,0v-6.4l-0.9,0.4
		C702.9,163.9,700.8,164.3,699.1,164.3"/>
	<path class="st0" d="M733.4,166h1.1l0-1.7h-9.6l0,1.7h1.1c1,0,1.7,0.8,1.8,1.7v21c0,1-0.8,1.7-1.8,1.7H725l0,1.7h9.6l0-1.7h-1.1
		c-1,0-1.7-0.8-1.8-1.7v-21C731.7,166.8,732.4,166,733.4,166"/>
	<path class="st0" d="M776.7,166h1.3c0.9,0,1.7,0.7,1.7,1.6v17.1l-19.6-21h-1.4l0.1,0.8c0,0,0.3,2.1,0.3,4.6v19.6
		c0,0.9-0.8,1.6-1.7,1.6h-1.4l0,1.7h9.1l0-1.7h-1.3c-0.9,0-1.6-0.7-1.7-1.6v-17.2l19.7,21h0.6h0.8l-0.1-0.8c0,0-0.3-2.4-0.3-4.7
		v-19.5c0-0.9,0.8-1.6,1.7-1.6h1.4l0-1.7h-9.1L776.7,166z"/>
	<path class="st0" d="M826.2,178.1v1.7h1.3c1.3,0,1.3,0.8,1.3,1.1v6.4c-2.1,1.9-5,2.9-7.9,2.9c-6,0-10.1-4.8-10.1-12
		c0-7.2,4.1-12,10.1-12c4.7,0,7.9,2.2,9,6.3l0.1,0.5h1.6l-0.9-6.4l-0.3-0.2c-2.8-1.8-5.8-2.7-9.5-2.7c-8.5,0-14.2,5.8-14.2,14.4
		c0,8.6,5.7,14.4,14.3,14.4c6.9,0,10.3-3.6,11.5-5.1l0.1-0.2v-6.5c0-0.3,0.1-0.6,0.2-0.7c0.2-0.3,0.7-0.3,1-0.3h1.2v-1.7H826.2z"/>
	<g>
		<defs>
			<rect id="SVGID_1_" x="844.1" y="180.2" width="166.8" height="2.4"/>
		</defs>
		<clipPath id="SVGID_2_">
			<use xlink:href="#SVGID_1_"  style="overflow:visible;"/>
		</clipPath>
		<defs>
			<filter id="Adobe_OpacityMaskFilter" filterUnits="userSpaceOnUse" x="844.1" y="180.2" width="166.8" height="2.4">
				<feColorMatrix  type="matrix" values="1 0 0 0 0  0 1 0 0 0  0 0 1 0 0  0 0 0 1 0"/>
			</filter>
		</defs>
		<mask maskUnits="userSpaceOnUse" x="844.1" y="180.2" width="166.8" height="2.4" id="SVGID_3_">
			<g class="st1">
				
					<linearGradient id="SVGID_4_" gradientUnits="userSpaceOnUse" x1="827.5428" y1="511.5071" x2="831.8023" y2="511.5071" gradientTransform="matrix(39.1518 0 0 -39.1518 -31555.6875 20207.7949)">
					<stop  offset="0" style="stop-color:#FFFFFF"/>
					<stop  offset="1" style="stop-color:#1A1A1A"/>
				</linearGradient>
				<rect x="844.1" y="180.2" class="st2" width="166.8" height="2.4"/>
			</g>
		</mask>
		
			<linearGradient id="SVGID_5_" gradientUnits="userSpaceOnUse" x1="827.5428" y1="511.5071" x2="831.8023" y2="511.5071" gradientTransform="matrix(39.1518 0 0 -39.1518 -31555.6875 20207.7949)">
			<stop  offset="0" style="stop-color:#F4BF8C"/>
			<stop  offset="1" style="stop-color:#F4BF8C"/>
		</linearGradient>
		<rect x="844.1" y="180.2" class="st3" width="166.8" height="2.4"/>
	</g>
	<g>
		<defs>
			<rect id="SVGID_6_" x="236.1" y="180.2" width="166.8" height="2.4"/>
		</defs>
		<clipPath id="SVGID_7_">
			<use xlink:href="#SVGID_6_"  style="overflow:visible;"/>
		</clipPath>
		<defs>
			<filter id="Adobe_OpacityMaskFilter_1_" filterUnits="userSpaceOnUse" x="236.1" y="180.2" width="166.8" height="2.4">
				<feColorMatrix  type="matrix" values="1 0 0 0 0  0 1 0 0 0  0 0 1 0 0  0 0 0 1 0"/>
			</filter>
		</defs>
		<mask maskUnits="userSpaceOnUse" x="236.1" y="180.2" width="166.8" height="2.4" id="SVGID_8_">
			<g class="st4">
				
					<linearGradient id="SVGID_9_" gradientUnits="userSpaceOnUse" x1="851.6945" y1="501.2747" x2="855.9541" y2="501.2747" gradientTransform="matrix(-39.1518 0 0 39.1518 33748.1719 -19444.3984)">
					<stop  offset="0" style="stop-color:#FFFFFF"/>
					<stop  offset="1" style="stop-color:#1A1A1A"/>
				</linearGradient>
				<rect x="236.1" y="180.2" class="st5" width="166.8" height="2.4"/>
			</g>
		</mask>
		
			<linearGradient id="SVGID_10_" gradientUnits="userSpaceOnUse" x1="851.6945" y1="501.2747" x2="855.9541" y2="501.2747" gradientTransform="matrix(-39.1518 0 0 39.1518 33748.1719 -19444.3984)">
			<stop  offset="0" style="stop-color:#F4BF8C"/>
			<stop  offset="1" style="stop-color:#F4BF8C"/>
		</linearGradient>
		<rect x="236.1" y="180.2" class="st6" width="166.8" height="2.4"/>
	</g>
	<g>
		<defs>
			<path id="SVGID_11_" d="M274.5,45.8v6.7h4.2c2.5,0,3.3,0.5,3.6,0.7c0.6,0.5,0.7,0.9,0.7,1.2c0,0.7-0.3,1.8-1.5,3.6
				c-0.2,0.3-0.8,1-2.4,2.8c-1.3,1.4-2.9,3.1-4.8,5.1c-1.9,2-4,4.1-6.4,6.5c-2.4,2.3-4.7,4.7-7.1,7c-2.4,2.3-4.7,4.5-7,6.6
				c-0.9,0.8-1.8,1.6-2.6,2.4v-24c0-5.6,0.4-7.7,0.7-8.4c0.2-0.5,0.5-1,1-1.4c0.5-0.5,1.1-0.9,1.8-1.2c0.7-0.3,1.4-0.6,2.2-0.7
				c0.8-0.2,1.6-0.2,2.3-0.2h5.2v-6.7h-43.8v6.7h5.4c1.9,0,3.6,0.5,5.3,1.4c0.6,0.3,1.1,0.7,1.4,1.1c0.3,0.3,0.5,0.8,0.7,1.4
				c0.2,0.7,0.4,1.7,0.4,2.9c0.1,1.3,0.1,3,0.1,5.1v60.1c0,7.2-0.9,8.9-1.2,9.3c-1.3,1.7-3.5,2.5-6.7,2.5h-5.4v6.7h43.8v-6.7h-5.2
				c-1.9,0-3.6-0.5-5.2-1.4c-0.6-0.3-1.1-0.7-1.5-1.1c-0.3-0.3-0.5-0.7-0.6-1.2c-0.2-0.7-0.4-1.7-0.4-2.9c-0.1-1.3-0.1-3.1-0.1-5.2
				v-25l28.6,28.3c1.2,1.2,2.2,2.2,2.8,2.9c0.7,0.9,1.1,1.4,1.2,1.6c0.2,0.3,0.2,0.5,0.2,0.6c0,0.4,0.1,0.8,0.1,1.3
				c0,0.2,0,0.6-0.9,1.3c-0.4,0.3-1.6,0.9-4.5,0.9h-2.1v6.7h48.4v-6.5l-1.9-0.1c-3.6-0.3-7.4-1.3-11.1-3.2c-3.8-2-8.5-5.7-13.9-11.2
				l-32.9-32.7l26.6-26.7c1.7-1.6,3.2-2.9,4.6-4c1.4-1.1,2.7-2,3.8-2.7c1.1-0.7,2.2-1.3,3.1-1.7c0.9-0.4,1.8-0.8,2.4-1
				c1.5-0.4,3.2-0.7,5-0.8l2-0.1v-6.6H274.5z"/>
		</defs>
		<clipPath id="SVGID_12_">
			<use xlink:href="#SVGID_11_"  style="overflow:visible;"/>
		</clipPath>
		
			<linearGradient id="SVGID_13_" gradientUnits="userSpaceOnUse" x1="846.4251" y1="542.4479" x2="850.6848" y2="542.4479" gradientTransform="matrix(0 -20.5536 -20.5536 0 11422.1016 17541.627)">
			<stop  offset="0" style="stop-color:#13414F"/>
			<stop  offset="1" style="stop-color:#115964"/>
		</linearGradient>
		<rect x="220.6" y="45.8" class="st7" width="104.5" height="97.2"/>
	</g>
	<g>
		<defs>
			<path id="SVGID_14_" d="M344.4,45.8v6.7h5.4c1.9,0,3.6,0.5,5.3,1.4c0.6,0.4,1.1,0.7,1.5,1.1c0.2,0.3,0.4,0.7,0.6,1.2
				c0.2,0.8,0.4,1.8,0.4,3c0.1,1.3,0.1,3.1,0.1,5.2v60.1c0,7.2-0.9,8.9-1.2,9.3c-1.3,1.7-3.5,2.5-6.7,2.5h-5.4v6.7h44v-6.7H383
				c-1.9,0-3.6-0.5-5.2-1.4c-0.6-0.3-1.1-0.7-1.5-1.1c-0.3-0.3-0.5-0.7-0.6-1.2c-0.2-0.7-0.4-1.7-0.4-2.9c-0.1-1.3-0.1-3.1-0.1-5.2
				V64.4c0-7.2,1-8.9,1.3-9.3c1.3-1.7,3.5-2.5,6.7-2.5h5.4v-6.7H344.4z"/>
		</defs>
		<clipPath id="SVGID_15_">
			<use xlink:href="#SVGID_14_"  style="overflow:visible;"/>
		</clipPath>
		
			<linearGradient id="SVGID_16_" gradientUnits="userSpaceOnUse" x1="846.4251" y1="538.9648" x2="850.6848" y2="538.9648" gradientTransform="matrix(0 -20.5536 -20.5536 0 11444.0645 17541.627)">
			<stop  offset="0" style="stop-color:#13414F"/>
			<stop  offset="1" style="stop-color:#115964"/>
		</linearGradient>
		<rect x="344.4" y="45.8" class="st8" width="44" height="97.2"/>
	</g>
	<g>
		<defs>
			<path id="SVGID_17_" d="M479.9,43.7v6.4l1.8,0.2c4,0.5,5.8,1.4,6.6,2.1c1,0.8,1.5,1.7,1.5,2.4c0,1.2-0.5,3.9-3.1,10.3l-20.1,49.3
				l-21.7-50.1c-2.5-5.6-3-8.5-3-9.9c0-0.6,0.1-1.1,0.2-1.5c0.1-0.3,0.4-0.6,0.7-0.8c0.4-0.3,1.1-0.6,2.5-1c1.2-0.3,2.9-0.6,5-0.8
				l1.9-0.2v-6.5H410v6.5l1.9,0.1c2.6,0.2,4.6,0.7,6.1,1.3c1.4,0.7,2.5,1.6,3.5,2.8c0.3,0.3,1.1,1.6,3.5,7.1l35.4,81.5h5.3l33-80.5
				c0.8-1.9,1.6-3.6,2.4-5.1c0.7-1.4,1.5-2.5,2.4-3.5c0.9-0.9,1.9-1.7,3.1-2.3c1.2-0.6,2.7-1.1,4.5-1.4l1.7-0.3v-6.3H479.9z"/>
		</defs>
		<clipPath id="SVGID_18_">
			<use xlink:href="#SVGID_17_"  style="overflow:visible;"/>
		</clipPath>
		
			<linearGradient id="SVGID_19_" gradientUnits="userSpaceOnUse" x1="846.4251" y1="535.4282" x2="850.6848" y2="535.4282" gradientTransform="matrix(0 -20.5536 -20.5536 0 11466.3662 17541.627)">
			<stop  offset="0" style="stop-color:#13414F"/>
			<stop  offset="1" style="stop-color:#115964"/>
		</linearGradient>
		<rect x="410" y="43.7" class="st9" width="102.7" height="99.4"/>
	</g>
	<g>
		<defs>
			<path id="SVGID_20_" d="M561.7,43.7l-33,80.5c-0.8,1.9-1.6,3.6-2.4,5.1c-0.7,1.4-1.5,2.5-2.4,3.5c-0.9,0.9-1.9,1.7-3.1,2.2
				c-1.2,0.6-2.7,1.1-4.5,1.4l-1.7,0.3v6.3h32.8v-6.4l-1.8-0.2c-4-0.5-5.8-1.4-6.6-2.1c-1-0.8-1.5-1.7-1.5-2.4
				c0-1.2,0.5-3.9,3.1-10.3l20.1-49.3l21.7,50.1c2.5,5.6,3,8.5,3,9.9c0,0.6-0.1,1.1-0.2,1.5c-0.1,0.3-0.4,0.6-0.7,0.8
				c-0.4,0.3-1.1,0.7-2.5,1c-1.2,0.3-2.9,0.6-5,0.8l-1.8,0.2v6.5h42.2v-6.5l-1.9-0.2c-2.6-0.2-4.6-0.7-6.1-1.3
				c-1.4-0.7-2.5-1.6-3.5-2.8c-0.3-0.3-1.1-1.6-3.5-7.1L567,43.7H561.7z"/>
		</defs>
		<clipPath id="SVGID_21_">
			<use xlink:href="#SVGID_20_"  style="overflow:visible;"/>
		</clipPath>
		
			<linearGradient id="SVGID_22_" gradientUnits="userSpaceOnUse" x1="846.4251" y1="531.5333" x2="850.6848" y2="531.5333" gradientTransform="matrix(0 -20.5536 -20.5536 0 11490.9248 17541.627)">
			<stop  offset="0" style="stop-color:#13414F"/>
			<stop  offset="1" style="stop-color:#115964"/>
		</linearGradient>
		<rect x="514.6" y="43.7" class="st10" width="102.7" height="99.4"/>
	</g>
	<g>
		<defs>
			<path id="SVGID_23_" d="M955.8,43.7l-33,80.5c-0.8,1.9-1.6,3.6-2.4,5.1c-0.7,1.4-1.5,2.5-2.4,3.5c-0.9,0.9-1.9,1.7-3.1,2.2
				c-1.2,0.6-2.7,1.1-4.5,1.4l-1.7,0.3v6.3h32.8v-6.4l-1.8-0.2c-4-0.5-5.8-1.4-6.6-2.1c-1-0.8-1.5-1.7-1.5-2.4
				c0-1.2,0.5-3.9,3.1-10.3l20.1-49.3l21.7,50.1c2.5,5.6,3,8.5,3,9.9c0,0.6-0.1,1.1-0.2,1.5c-0.1,0.3-0.4,0.6-0.7,0.8
				c-0.4,0.3-1.1,0.7-2.5,1c-1.2,0.3-2.9,0.6-5,0.8l-1.9,0.2v6.5h42.2v-6.5l-1.9-0.2c-2.6-0.2-4.7-0.7-6.1-1.3
				c-1.4-0.7-2.5-1.6-3.5-2.8c-0.3-0.3-1.1-1.6-3.5-7.1l-35.4-81.5H955.8z"/>
		</defs>
		<clipPath id="SVGID_24_">
			<use xlink:href="#SVGID_23_"  style="overflow:visible;"/>
		</clipPath>
		
			<linearGradient id="SVGID_25_" gradientUnits="userSpaceOnUse" x1="846.4251" y1="516.8616" x2="850.6848" y2="516.8616" gradientTransform="matrix(0 -20.5536 -20.5536 0 11583.4395 17541.627)">
			<stop  offset="0" style="stop-color:#13414F"/>
			<stop  offset="1" style="stop-color:#115964"/>
		</linearGradient>
		<rect x="908.7" y="43.7" class="st11" width="102.7" height="99.4"/>
	</g>
	<g>
		<defs>
			<path id="SVGID_26_" d="M638.7,45.8v6.7h5.6c2.9,0,5,0.8,6.4,2.3c0.3,0.4,1.4,2.1,1.4,9.5v60.1c0,6.9-0.8,8.6-1.1,9
				c-1.3,2-3.5,2.9-6.7,2.9h-5.6v6.7h75.7l9.1-28.9l-6.2-1.3l-0.7,1.6c-1.2,2.8-2.4,5.3-3.5,7.3c-1.1,1.9-2.2,3.6-3.4,4.9
				c-1.1,1.3-2.2,2.3-3.3,3.1c-1.1,0.8-2.3,1.4-3.7,1.8c-2.7,1-7.5,1.5-14.3,1.5h-6.8c-8.2,0-9.7-0.4-10-0.6c-0.4-0.2-0.8-0.4-1-0.6
				c-0.3-0.3-0.5-0.7-0.6-1.1c-0.2-0.6-0.4-1.4-0.5-2.3c-0.1-1.1-0.2-2.4-0.2-3.9V65.9c0-7.1,0.6-9.1,0.8-9.5
				c0.3-0.6,0.7-1.1,1.2-1.6c0.4-0.4,1.1-0.8,1.9-1.2c0.9-0.4,2.1-0.7,3.6-0.9c1.6-0.2,3.6-0.3,6-0.3h2.1v-6.7H638.7z"/>
		</defs>
		<clipPath id="SVGID_27_">
			<use xlink:href="#SVGID_26_"  style="overflow:visible;"/>
		</clipPath>
		
			<linearGradient id="SVGID_28_" gradientUnits="userSpaceOnUse" x1="846.4251" y1="527.2469" x2="850.6848" y2="527.2469" gradientTransform="matrix(0 -20.5536 -20.5536 0 11517.9531 17541.627)">
			<stop  offset="0" style="stop-color:#13414F"/>
			<stop  offset="1" style="stop-color:#115964"/>
		</linearGradient>
		<rect x="638.7" y="45.8" class="st12" width="84.8" height="97.2"/>
	</g>
	<g>
		<defs>
			<path id="SVGID_29_" d="M746.4,45.8v6.7h5.4c1.9,0,3.6,0.5,5.3,1.4c0.6,0.4,1.1,0.7,1.5,1.1c0.2,0.3,0.4,0.7,0.6,1.2
				c0.2,0.8,0.4,1.8,0.4,3c0.1,1.3,0.1,3.1,0.1,5.2v60.1c0,7.2-0.9,8.9-1.2,9.3c-1.3,1.7-3.5,2.5-6.7,2.5h-5.4v6.7h44v-6.7H785
				c-1.9,0-3.6-0.5-5.2-1.4c-0.6-0.3-1.1-0.7-1.5-1.1c-0.3-0.3-0.5-0.7-0.6-1.2c-0.2-0.7-0.3-1.7-0.4-2.9c-0.1-1.3-0.1-3.1-0.1-5.2
				V64.4c0-7.2,1-8.9,1.3-9.3c1.3-1.7,3.5-2.5,6.7-2.5h5.4v-6.7H746.4z"/>
		</defs>
		<clipPath id="SVGID_30_">
			<use xlink:href="#SVGID_29_"  style="overflow:visible;"/>
		</clipPath>
		
			<linearGradient id="SVGID_31_" gradientUnits="userSpaceOnUse" x1="846.4251" y1="523.9971" x2="850.6848" y2="523.9971" gradientTransform="matrix(0 -20.5536 -20.5536 0 11538.4453 17541.627)">
			<stop  offset="0" style="stop-color:#13414F"/>
			<stop  offset="1" style="stop-color:#115964"/>
		</linearGradient>
		<rect x="746.4" y="45.8" class="st13" width="44" height="97.2"/>
	</g>
	<g>
		<defs>
			<path id="SVGID_32_" d="M815.1,45.8v26h6.5l0.2-1.8c0.4-3.1,1.1-5.7,1.9-7.6c0.8-1.8,1.8-3.1,2.9-4.1c1.2-0.9,2.7-1.6,4.5-1.9
				c2-0.4,4.3-0.6,7-0.6h9.1v69.1c0,6.7-0.9,8.5-1.1,8.8c-1.2,1.8-3.4,2.7-6.7,2.7h-5.4v6.7h43.6v-6.7h-5.3c-3,0-5.2-0.7-6.5-2.2
				c-0.3-0.4-1.3-2.1-1.3-9.4V55.8h11c2.4,0,4.5,0.3,6.3,0.8c1.7,0.5,3.1,1.2,4.2,2.3c1.1,1,2.1,2.5,2.8,4.2
				c0.8,1.9,1.3,4.2,1.7,6.9l0.2,1.8h5.5v-26H815.1z"/>
		</defs>
		<clipPath id="SVGID_33_">
			<use xlink:href="#SVGID_32_"  style="overflow:visible;"/>
		</clipPath>
		
			<linearGradient id="SVGID_34_" gradientUnits="userSpaceOnUse" x1="846.4251" y1="520.7479" x2="850.6848" y2="520.7479" gradientTransform="matrix(0 -20.5536 -20.5536 0 11558.9336 17541.627)">
			<stop  offset="0" style="stop-color:#13414F"/>
			<stop  offset="1" style="stop-color:#115964"/>
		</linearGradient>
		<rect x="815.1" y="45.8" class="st14" width="81.2" height="97.2"/>
	</g>
	<g>
		<defs>
			<path id="SVGID_35_" d="M126.9,52.4c1.4,0.8,2.8,1.5,4.1,2.4c2.7,1.8,5.6,3.2,8.8,4c1.5,0.4,2.9,1,4.2,1.9c1.8,1.1,6,4.8,7.3,6.4
				c0.1,0.1,0.3,0.2,0.4,0.3c0.1,0.1,0.2,0.1,0.2,0.2c0.3,0.4,0.6,0.7,0.9,1.1c0.1,0,0.1-0.1,0.1-0.1c-1.1-1.4-15-16-15.8-16.3
				c-0.8-0.3-1.5-0.6-2.3-0.9c-1-0.3-2-0.4-3-0.4C130.2,50.9,128.5,51.3,126.9,52.4"/>
		</defs>
		<clipPath id="SVGID_36_">
			<use xlink:href="#SVGID_35_"  style="overflow:visible;"/>
		</clipPath>
		
			<linearGradient id="SVGID_37_" gradientUnits="userSpaceOnUse" x1="841.8392" y1="492.3186" x2="846.0988" y2="492.3186" gradientTransform="matrix(-40.9636 38.5013 38.5013 40.9636 15713.5234 -52560.3828)">
			<stop  offset="0" style="stop-color:#F4BF8C"/>
			<stop  offset="0.5097" style="stop-color:#F4BF8C"/>
			<stop  offset="1" style="stop-color:#98623E"/>
		</linearGradient>
		<polygon class="st15" points="161.9,60.3 139.2,81.6 118.1,59.2 140.8,37.8 		"/>
	</g>
	<g>
		<defs>
			<path id="SVGID_38_" d="M128.5,71.6c0-0.1,0-0.1,0-0.2C128.5,71.5,128.5,71.6,128.5,71.6 M128.5,71.4c0-0.1,0-0.2-0.1-0.4
				C128.4,71.2,128.5,71.3,128.5,71.4"/>
		</defs>
		<clipPath id="SVGID_39_">
			<use xlink:href="#SVGID_38_"  style="overflow:visible;"/>
		</clipPath>
		
			<linearGradient id="SVGID_40_" gradientUnits="userSpaceOnUse" x1="841.8392" y1="492.3289" x2="846.0988" y2="492.3289" gradientTransform="matrix(-40.9636 38.5013 38.5013 40.9636 15713.5381 -52560.3672)">
			<stop  offset="0" style="stop-color:#F4BF8C"/>
			<stop  offset="0.5097" style="stop-color:#F4BF8C"/>
			<stop  offset="1" style="stop-color:#98623E"/>
		</linearGradient>
		<polygon class="st16" points="128.8,71.4 128.5,71.7 128.1,71.3 128.5,71 		"/>
	</g>
	<g>
		<defs>
			<path id="SVGID_41_" d="M128.5,71.7C128.5,71.8,128.5,71.8,128.5,71.7"/>
		</defs>
		<clipPath id="SVGID_42_">
			<use xlink:href="#SVGID_41_"  style="overflow:visible;"/>
		</clipPath>
		
			<linearGradient id="SVGID_43_" gradientUnits="userSpaceOnUse" x1="841.8392" y1="492.333" x2="846.0988" y2="492.333" gradientTransform="matrix(-40.9636 38.5013 38.5013 40.9636 15713.585 -52560.3203)">
			<stop  offset="0" style="stop-color:#F4BF8C"/>
			<stop  offset="0.5097" style="stop-color:#F4BF8C"/>
			<stop  offset="1" style="stop-color:#98623E"/>
		</linearGradient>
		<polygon class="st17" points="128.6,71.7 128.5,71.8 128.5,71.7 128.5,71.7 		"/>
	</g>
	<g>
		<defs>
			<path id="SVGID_44_" d="M128.4,71c0,0,0-0.1,0-0.1C128.4,71,128.4,71,128.4,71 M128.4,70.9c0-0.1-0.1-0.3-0.1-0.5
				C128.3,70.5,128.4,70.7,128.4,70.9"/>
		</defs>
		<clipPath id="SVGID_45_">
			<use xlink:href="#SVGID_44_"  style="overflow:visible;"/>
		</clipPath>
		
			<linearGradient id="SVGID_46_" gradientUnits="userSpaceOnUse" x1="902.3338" y1="380.569" x2="906.5934" y2="380.569" gradientTransform="matrix(-4.5805 4.3052 4.3052 4.5805 2626.9365 -5560.7793)">
			<stop  offset="0" style="stop-color:#F4BF8C"/>
			<stop  offset="0.5097" style="stop-color:#F4BF8C"/>
			<stop  offset="1" style="stop-color:#98623E"/>
		</linearGradient>
		<polygon class="st18" points="128.7,70.8 128.4,71.1 128,70.7 128.4,70.4 		"/>
	</g>
	<g>
		<defs>
			<path id="SVGID_47_" d="M128.3,70.4c0,0.3,0.1,0.5,0.1,0.6c0,0,0,0,0,0c0-0.1,0-0.2,0-0.3C128.4,70.6,128.3,70.5,128.3,70.4
				C128.3,70.4,128.3,70.4,128.3,70.4"/>
		</defs>
		<clipPath id="SVGID_48_">
			<use xlink:href="#SVGID_47_"  style="overflow:visible;"/>
		</clipPath>
		
			<linearGradient id="SVGID_49_" gradientUnits="userSpaceOnUse" x1="902.3338" y1="380.5695" x2="906.5934" y2="380.5695" gradientTransform="matrix(-4.5805 4.3052 4.3052 4.5805 2626.9353 -5560.7808)">
			<stop  offset="0" style="stop-color:#F4BF8C"/>
			<stop  offset="0.5097" style="stop-color:#F4BF8C"/>
			<stop  offset="1" style="stop-color:#98623E"/>
		</linearGradient>
		<polygon class="st19" points="128.8,70.7 128.4,71.2 127.9,70.7 128.4,70.3 		"/>
	</g>
	<g>
		<defs>
			<path id="SVGID_50_" d="M128.5,71.7C128.5,71.7,128.5,71.7,128.5,71.7C128.5,71.7,128.5,71.7,128.5,71.7 M128.5,71.7
				C128.5,71.6,128.5,71.6,128.5,71.7C128.5,71.6,128.5,71.6,128.5,71.7"/>
		</defs>
		<clipPath id="SVGID_51_">
			<use xlink:href="#SVGID_50_"  style="overflow:visible;"/>
		</clipPath>
		
			<linearGradient id="SVGID_52_" gradientUnits="userSpaceOnUse" x1="846.8105" y1="481.6336" x2="851.0701" y2="481.6336" gradientTransform="matrix(-23.2615 21.8633 21.8633 23.2615 9352.252 -29698.2852)">
			<stop  offset="0" style="stop-color:#F4BF8C"/>
			<stop  offset="0.5097" style="stop-color:#F4BF8C"/>
			<stop  offset="1" style="stop-color:#98623E"/>
		</linearGradient>
		<polygon class="st20" points="128.5,71.7 128.5,71.7 128.5,71.7 128.5,71.6 		"/>
	</g>
	<g>
		<defs>
			<path id="SVGID_53_" d="M128.5,71.7C128.5,71.7,128.5,71.7,128.5,71.7C128.5,71.7,128.5,71.7,128.5,71.7 M128.5,71.7
				C128.5,71.6,128.5,71.6,128.5,71.7C128.5,71.6,128.5,71.6,128.5,71.7"/>
		</defs>
		<clipPath id="SVGID_54_">
			<use xlink:href="#SVGID_53_"  style="overflow:visible;"/>
		</clipPath>
		
			<linearGradient id="SVGID_55_" gradientUnits="userSpaceOnUse" x1="902.3338" y1="380.6638" x2="906.5934" y2="380.6638" gradientTransform="matrix(-4.5805 4.3052 4.3052 4.5805 2627.0613 -5560.6465)">
			<stop  offset="0" style="stop-color:#F4BF8C"/>
			<stop  offset="0.5097" style="stop-color:#F4BF8C"/>
			<stop  offset="1" style="stop-color:#98623E"/>
		</linearGradient>
		<polygon class="st21" points="128.5,71.7 128.5,71.7 128.5,71.7 128.5,71.6 		"/>
	</g>
	<g>
		<defs>
			<path id="SVGID_56_" d="M52.8,179.3c3.1,0.5,6.2,0.8,9.4,0.8c13.3,0,20.8,3.9,24.7,7.3c0.1,0.1,0.1,0.1,0.2,0.1
				c0.6,0.5,1.1,1,1.5,1.5c0.2,0.3,0.5,0.5,0.6,0.7c0.3,0.4,0.6,0.8,0.9,1.2c0.2,0.4,0.4,0.7,0.6,0.9c0.1,0.2,0.2,0.3,0.2,0.4
				c0,0.1,0,0.1,0.1,0.1c0.1,0.2,0.1,0.3,0.1,0.3c-4.1-0.5-7.8-0.7-11-0.7c-0.5,0-1.1,0-1.6,0c-0.7,0-1.5,0-2.1,0.1
				C67.6,189.5,59.6,185.1,52.8,179.3 M137.8,166.6c0,0,0.3,0,0.7,0.2c0.5,0.2,1.1,0.5,1.9,1.1c0.2,0.1,0.4,0.3,0.6,0.5
				c0.4,0.3,0.8,0.8,1.3,1.3c0.2,0.2,0.4,0.5,0.7,0.8c0.1,0.2,0.3,0.4,0.4,0.6c-1.4,1.8-3,3.5-4.6,5.1
				C138.5,173.2,138.2,170.1,137.8,166.6 M157.5,102.8c3.3-1.8,6.3-3.5,6.3-3.5c0.4,1.9,2.2,3.2,2.2,3.2c4,7.1-0.1,7.9-0.1,7.9
				c0.3-0.4,0-3.6,0-3.6c-3.5,4.5-5.9,3.5-5.9,3.5c0.7-1.2-0.1-3.8-0.1-3.8c-0.8,0.8-1.6,1.4-2.3,1.9c-5.2,3.2-8.9-1.9-8.9-1.9
				c0.1,0,0.1,0,0.2,0C150.2,106.4,154,104.6,157.5,102.8 M170.6,94.1c1.6-3,1.7-6.2,1.7-6.2h1.8c-0.4,3.7-1.7,6-3,7.4
				C170.8,94.8,170.7,94.4,170.6,94.1 M128.4,71.1C128.4,71.1,128.4,71.1,128.4,71.1C128.4,71.1,128.4,71.1,128.4,71.1 M42.9,66.7
				c0-0.2,0-0.5,0-0.7c0-1-0.1-2-0.1-3.1v-0.1c0-0.9,0-1.7,0.1-2.6c0.2-3.1,1.2-6,3-8.6c0.1-0.1,0.1-0.1,0.1-0.2
				c0.4-0.5,0.8-1,1.2-1.5c0.1-0.1,0.2-0.2,0.3-0.3c0.4-0.4,0.7-0.9,1.1-1.3c0.1-0.1,0.1-0.2,0.2-0.3c0.4-0.5,0.9-1,1.3-1.5
				c0.1-0.1,0.2-0.2,0.3-0.3c0.4-0.4,0.9-0.9,1.3-1.3c0.1-0.1,0.1-0.1,0.2-0.2c0.5-0.5,1-0.9,1.5-1.4c0.1-0.1,0.3-0.2,0.4-0.3
				c0.5-0.4,1-0.9,1.6-1.3c0,0,0.1-0.1,0.1-0.1c0.6-0.5,1.2-0.9,1.8-1.3c0.1-0.1,0.3-0.2,0.4-0.3c0.6-0.4,1.2-0.9,1.9-1.3
				c1.6-1.1,3.3-2.1,5.2-3c0.8-0.4,1.6-0.8,2.4-1.1c1.2-0.5,3.1-1.3,5.4-2.2c0.5,4.8,2.6,8.3,4.8,10.6c0.1,0,0.2-0.1,0.2-0.1
				c-0.1,0-0.1,0.1-0.2,0.1c3.1,3.2,6.4,4.4,6.4,4.4c-6-5-6.7-13.9-6.7-13.9c10.3,0.5,16,4.9,19.1,8.8c2.7,3.4,3.4,6.5,3.4,6.5
				c-2.8-1.9-5.6-2.4-7.6-2.4c-1.9,0-3.1,0.4-3.1,0.4c0.7,0.1,1.5,0.3,2.3,0.6c-1.2,1.4-2.5,3.1-3.7,5.1c-0.7,1.1-1.4,2.4-2,3.7
				c-0.2,0.4-0.4,0.9-0.6,1.4c-0.6,1.4-1.2,2.9-1.6,4.5c-0.2,0.5-0.3,1.1-0.4,1.6c-0.4,1.7-0.7,3.4-0.8,5.2c-0.2,2.4-0.2,5,0.2,7.7
				c0.2,1.4,0.4,2.7,0.8,4.2c0.2,0.7,0.4,1.4,0.6,2.2c0.4,1.5,1,2.9,1.6,4.5c0,0-0.1,0-0.1,0c0,0-0.1,0-0.2-0.1
				c-0.5-0.1-1.3-0.5-2.4-0.9c-0.5-0.2-1-0.4-1.5-0.6c-0.5-0.2-1.1-0.5-1.6-0.8c-0.3-0.2-0.7-0.3-1-0.5c-0.6-0.4-1.3-0.7-1.8-1.2
				c-0.6-0.4-1.1-0.8-1.6-1.3c-0.5-0.4-0.8-0.9-1.1-1.4c-0.1-0.2-0.2-0.5-0.3-0.7c-0.5-1.8-0.8,0.7,0.1,5c0.1,0.6,0.3,1.3,0.5,1.9
				c0.3,1,0.6,2.1,1,3.2c0.4,1.1,0.9,2.2,1.4,3.4c0.6,1.1,1.2,2.3,1.9,3.4c0.5,0.7,1,1.5,1.6,2.2c1.4,1.8,3.1,3.5,5.1,4.9
				c1.4,1,2.8,2.1,4.4,3.3c1,0.8,2.1,1.6,3.1,2.5c2.1,1.7,4.3,3.6,6.5,5.5c2.2,1.9,4.3,4,6.4,6.1c1,1,2.1,2.1,3.1,3.2
				c2,2.1,3.9,4.3,5.6,6.5c0.8,1.1,1.6,2.2,2.4,3.2c1.5,2.2,2.7,4.3,3.7,6.4c0.8,1.8,1.5,3.6,1.8,5.3c0.3,1.7,0.4,3.3,0.1,4.8
				c0,0-0.3-0.3-0.8-0.8c0,0,0,0,0,0c-0.9-0.9-2.5-2.5-4.7-4.4c-0.6-0.5-1.2-1-1.8-1.6c-0.7-0.5-1.3-1.1-2-1.7
				c-0.7-0.6-1.5-1.2-2.2-1.7c-1.9-1.5-4-2.9-6.2-4.3c-4-2.5-8.3-4.8-12.6-6.2c-1-0.3-2-0.6-3-0.8c-3.5-0.8-7.8-2.5-12.4-4.9
				c-1.9-1-3.9-2.2-5.9-3.5c-2.6-1.7-5.2-3.6-7.7-5.7c-1.2-1-2.4-2.1-3.6-3.3c-1.3-1.3-2.5-2.6-3.6-3.9c-0.4-0.4-0.7-0.9-1.1-1.4
				c-0.7-0.9-1.4-1.9-2-2.8c-3.1-4.8-5.2-10-5.3-15.5c0-1.2,0-2.4,0.1-3.6c0.5-4.1,2.1-8,4.5-11.3c1.2-1.7,2.9-4,4.8-6.6
				c4-5.4,9.1-12,13.5-16.9c0.4-0.4,0.7-0.8,1.1-1.2c0.7-0.8,1.4-1.5,2.1-2.1c0.7-0.6,1.3-1.2,1.9-1.7c0.8-0.7,1.6-1.2,2.2-1.5
				c0,0,0,0,0,0c-0.7,0.2-3.2,1.1-6.8,2.8c-4,1.9-9.3,5-14.7,9.5C51.5,59,47,63.8,43.1,69.8C43,68.8,42.9,67.8,42.9,66.7 M156.8,46
				c-4.6-4.2-10.6-7.3-13.4-8.8c-0.3-0.1-0.5-0.2-0.7-0.3c0,0,0,0,0,0c-0.3-0.4-0.6-0.9-0.9-1.3c0,0,0-0.1-0.1-0.1
				c-0.3-0.4-0.5-0.8-0.7-1.2c-0.1-0.1-0.1-0.3-0.2-0.4c-0.2-0.3-0.3-0.7-0.5-1c-0.1-0.2-0.2-0.5-0.3-0.7c0.1-0.3,0.2-0.6,0.3-1
				c0.3-0.2,0.6-0.4,0.9-0.7h16.3v16.2C157.2,46.4,157,46.2,156.8,46 M114.7,83.7c0-0.1,0-0.3-0.1-0.4c-0.2-0.2-0.5-0.5-0.8-0.9
				c-2.5-3.5-4.7-7.1-6.6-11.1c-2.4-5.2-3.1-10.6-2.1-15.3c0.1-0.3,0.1-0.6,0.2-0.9c0.1-7.1-1.7-12.4-4.5-16.2
				c-3.3-4.5-8-7-12.6-8.5c-2.2-0.7-4.3-1.1-6.3-1.4c4-1.3,7.8-2.3,10.1-2.3c0,0,0-0.1,0-0.2c0-0.1,0-0.2-0.1-0.3
				c-0.1-0.4-0.3-1-0.9-1.7c-0.2-0.2-0.4-0.5-0.7-0.7c-0.2-0.2-0.4-0.4-0.7-0.6c-0.2-0.2-0.5-0.4-0.8-0.6c-0.2-0.2-0.5-0.3-0.7-0.5
				c-0.3-0.2-0.5-0.3-0.8-0.5c-0.9-0.5-2-1-3.3-1.4c-1.3-0.5-2.8-0.9-4.5-1.3c-0.4-0.1-0.9-0.2-1.3-0.3c-0.6-0.1-1.2-0.2-1.8-0.4
				c-1.3-0.2-2.7-0.5-4.2-0.7c-0.1,0-0.2,0-0.3,0c-0.5-0.1-1-0.1-1.5-0.2c-0.6-0.1-1.2-0.1-1.8-0.2c-0.1,0-0.3,0-0.4,0
				c-0.5,0-1-0.1-1.5-0.1c-0.5,0-0.6-0.7-0.2-0.9c0.1,0,0.2-0.1,0.3-0.1l0.2-0.1c0.1,0,0.2-0.1,0.3-0.1c0.1,0,0.2-0.1,0.2-0.1
				c0.1,0,0.2-0.1,0.2-0.1c0.1,0,0.2-0.1,0.3-0.1c0.1,0,0.1-0.1,0.2-0.1c0.1-0.1,0.3-0.1,0.4-0.1c0.1,0,0.2-0.1,0.3-0.1
				c0.1,0,0.3-0.1,0.4-0.1c0.1,0,0.2-0.1,0.3-0.1c0.1,0,0.3-0.1,0.4-0.1c0.1-0.1,0.3-0.1,0.5-0.1c0.1,0,0.2-0.1,0.3-0.1
				c0.1,0,0.3-0.1,0.4-0.1c0.1,0,0.3-0.1,0.4-0.1c0.1,0,0.2-0.1,0.3-0.1c0.2,0,0.3-0.1,0.5-0.1c0.2-0.1,0.4-0.1,0.6-0.2
				c0.1,0,0.2,0,0.3-0.1c0.2,0,0.3-0.1,0.5-0.1c0.1,0,0.2-0.1,0.4-0.1c0.2,0,0.4-0.1,0.6-0.1c0.1,0,0.2,0,0.3-0.1
				c0.2,0,0.3-0.1,0.5-0.1c0.2,0,0.3-0.1,0.5-0.1c0.1,0,0.2,0,0.3,0c0.2,0,0.5-0.1,0.7-0.1c0.1,0,0.3-0.1,0.4-0.1
				c0.2,0,0.4-0.1,0.5-0.1c0.1,0,0.3,0,0.5-0.1c0.2,0,0.4-0.1,0.6-0.1c0.1,0,0.3,0,0.4,0c0.2,0,0.4,0,0.6-0.1c0.1,0,0.3,0,0.4,0
				c0.2,0,0.4,0,0.7-0.1c0.1,0,0.3,0,0.4,0c0.2,0,0.4,0,0.7,0c0.2,0,0.5,0,0.7,0c0.1,0,0.3,0,0.4,0c0.2,0,0.4,0,0.6,0
				c0.2,0,0.3,0,0.5,0c0.1,0,1.6,0.1,3.8,0.1c4.7,0.2,9.1,1.9,12.5,4.8c3.9,3.2,6.6,7.8,7.3,13.1c0,0.1,0,0.2,0.1,0.3
				c0.9,7.6,1.7,15.4,1.7,18.7c0.7-2.9,2-5.4,4-7.5c0.2-0.3,0.5-0.5,0.8-0.8c6-5.6,16.2-9.8,22.2-4.3c0.7,0.7,1.7,1.9,2.6,3.2
				c0.6,0.8,1.2,1.6,1.8,2.3c2.3,2.5,5.2,4.4,8.3,5.7l0.4,0.2c2.3,1,4.5,2.3,6.5,3.9c0.6,1.7,0.9,3.4,0.8,5.3c0,0.6,0.2,1.6,0.6,2.1
				c0.2,0.3,0.4,0.5,0.7,0.7c2.5,1.7,7.9,5.4,12.4,9.7c3.4,3.2,6.4,6.8,7.4,10c0,0-3.4-0.8-7.4-0.5c-0.7,0.1-1.4,0.1-2.1,0.3
				c-0.6,0.1-1.3,0.1-1.9-0.1c-1.8-0.6-5.7-1.9-7.1-3.7c0,0-0.6,3.8,2.4,5.7c0.2,0.2,0.5,0.3,0.8,0.4c0,0,4.8,0.3,6.6,3.8
				c0.6,1.2,0.9,2.6,0.6,4.6c0,0-0.2,1.1-1.5,2.5c-1.1,1.2-3.1,2.7-6.4,3.8c-1.3,0.4-2.8,0.8-4.5,1.1c-2.6,0.5-5.8,0.7-9.6,0.7
				c-0.6,0-1.2,0-1.8,0c-0.2,0-0.4,0-0.6,0c0,0-6.8-8.6,1.8-13.7c-0.1-0.1-0.3-0.2-0.4-0.3c-2-1.2-4.2-2.2-6.6-2.4
				c-3.6-0.5-8.7-2.8-11.7-11.3c0,0.1,0,0.2,0,0.3c0,0,0,0,0,0c0-0.3-0.1-0.5-0.1-0.6c0,0,0,0,0-0.1c0,0-0.1,0.7,0,1.9
				c0.2,2.9,1.4,8.4,6.6,12.7c1.4,1.2,2.3,3,2.3,4.9c0,0-5.5-1.7-10.7-4.6c-0.3-0.2-0.6-0.4-0.9-0.5c-2.7-1.6-5.2-3.6-6.7-5.9
				c1.6,3.2,5.1,8.6,12.8,14.2c1.2,0.9,2.4,1.9,3.5,2.9c1.7,1.8,4,4.5,4.7,7.3c0.5,2-0.7,4-2.7,4.4c-0.3,0.1-0.5,0.1-0.8,0.1
				c-0.9,0-1.9-0.2-3.2-0.6c0,0,4.3,3.3,9.3,4c0,0,2.4,0.8,3.6,1.2c2,0.6,4.9,1.8,7.1,3.5c2.1,1.6,3.5,3.8,2.9,6.6
				c0,0,0.5,0.1,1.3-0.1c0,0,0.1,0,0.1,0v8.8c0,7.3-1.3,14.4-3.6,21c-2.5-9.5-7.2-18.3-13.7-25.6c-4.6-5.2-10.2-11-15-15.3
				c0,0-0.9-2.4,11,3.4c0.1,0.1,0.3-0.1,0.3-0.2c-0.7-1.6-4.1-8.1-18-18.9c-1-0.8-2.1-1.6-3.2-2.4c0,0-19.3-13.8-18.6-22.9
				c0,0,12.4,11.7,17.7,13.6c0,0,0.1,0,0.1,0C114.5,83.9,114.7,83.8,114.7,83.7 M93.3,0c-0.3,0-0.6,0-0.9,0c-0.5,0-1,0-1.4,0.1
				c-0.4,0-0.7,0-1.1,0c-0.5,0-1.1,0.1-1.7,0.1c-0.3,0-0.6,0-0.9,0.1c-1.4,0.1-2.9,0.3-4.4,0.4c-0.3,0-0.6,0.1-0.9,0.1
				c-0.5,0.1-1.1,0.1-1.6,0.2c-0.4,0.1-0.7,0.1-1.1,0.2c-0.6,0.1-1.2,0.2-1.8,0.3c-0.3,0.1-0.6,0.1-1,0.2c-0.5,0.1-1,0.2-1.5,0.3
				c-0.4,0.1-0.8,0.2-1.3,0.3c-0.4,0.1-0.9,0.2-1.3,0.3c-0.5,0.1-1,0.2-1.4,0.3c-0.8,0.2-1.5,0.4-2.3,0.6c-0.2,0-0.3,0.1-0.5,0.1
				c-1.8,0.5-3.5,1.1-5.3,1.8c-0.1,0-0.2,0.1-0.2,0.1c-0.7,0.3-1.4,0.5-2,0.8c-0.2,0.1-0.5,0.2-0.7,0.3c-0.9,0.4-1.7,0.8-2.5,1.2
				c-0.1,0-0.1,0.1-0.2,0.1c-1.8,0.9-3.6,1.8-5.3,2.9c-1.8,1.1-3.5,2.2-5.1,3.5c-0.2,0.1-0.3,0.3-0.5,0.4c-0.7,0.5-1.3,1-2,1.6
				c-0.3,0.2-0.5,0.4-0.7,0.7c-0.1,0.1-0.3,0.2-0.4,0.3c-0.4,0.4-0.9,0.7-1.3,1.1c-0.1,0.1-0.3,0.3-0.4,0.4
				c-0.6,0.6-1.3,1.2-1.9,1.9v0c0,0,0,0,0,0l0,0c-0.2,0.2-0.1,0.6,0.2,0.6c0.1,0,0.2,0,0.3,0c0.1,0,0.2,0,0.3,0c0.1,0,0.3,0,0.5,0
				c0.1,0,0.2,0,0.3,0c0.2,0,0.4,0,0.6,0c0.1,0,0.2,0,0.3,0c0.3,0,0.7,0.1,1,0.1h0c0.5,0.1,1.1,0.1,1.7,0.2c0.1,0,0.1,0,0.2,0
				c0.7,0.1,1.4,0.2,2.1,0.3c0,0,0,0,0,0c0.4,0.1,0.9,0.1,1.3,0.2c0,0,0.1,0,0.1,0c0.2,0,0.4,0.1,0.5,0.1c0.1,0,0.1,0,0.2,0
				c0.2,0,0.4,0.1,0.6,0.1l0.1,0c0.2,0,0.4,0.1,0.6,0.1c0,0,0.1,0,0.1,0c0.2,0,0.4,0.1,0.6,0.1c0,0,0.1,0,0.1,0
				c0.2,0,0.3,0.1,0.5,0.1c0,0,0.1,0,0.1,0c0.1,0,0.3,0.1,0.4,0.1c0.1,0,0.1,0,0.2,0.1c0.1,0,0.2,0.1,0.3,0.1c0.1,0,0.2,0.1,0.3,0.1
				c0.1,0,0.3,0.1,0.4,0.1c0.1,0,0.1,0,0.2,0.1c0.1,0.1,0.3,0.1,0.4,0.2c0,0,0.1,0,0.1,0c0.1,0,0.2,0.1,0.3,0.1
				c0.1,0,0.2,0.1,0.2,0.1c0.3,0.2,0.6,0.3,0.9,0.5c0,0,0,0,0,0c0.1,0.1,0.2,0.2,0.4,0.3c0,0,0,0,0,0c0.1,0.1,0.2,0.1,0.2,0.2
				c0,0,0.1,0.1,0.1,0.1c0.1,0.1,0.1,0.1,0.2,0.2c0,0,0.1,0.1,0.1,0.1c0.1,0.1,0.1,0.1,0.1,0.2c0,0,0,0.1,0.1,0.1
				c0.1,0.1,0.1,0.2,0.1,0.3c0.1,0.2,0,0.4-0.1,0.5c-0.2,0.2-0.5,0.4-0.9,0.5c-0.2,0.1-0.5,0.2-0.8,0.2c-0.3,0.1-0.6,0.2-1,0.2
				c-0.4,0.1-0.8,0.2-1.2,0.2c-0.3,0.1-0.6,0.1-0.9,0.2c-0.4,0.1-0.8,0.1-1.3,0.2c-1.7,0.3-3.7,0.7-5.8,1.2
				c-0.7,0.2-1.5,0.4-2.2,0.6c-0.3,0.1-0.5,0.1-0.8,0.2c-0.1,0-0.3,0.1-0.4,0.1c-0.7,0.2-1.4,0.4-2,0.6c-0.9,0.3-1.8,0.6-2.8,1
				c-0.5,0.2-1,0.4-1.5,0.6c-0.6,0.2-1.1,0.5-1.7,0.7c-1,0.5-2,1-3,1.5c-0.2,0.1-0.5,0.2-0.7,0.4c-0.1,0.1-0.2,0.1-0.4,0.2
				c-1,0.6-1.9,1.2-2.9,1.8c-1,0.7-2.1,1.5-3.1,2.3c-0.1,0-0.1,0.1-0.2,0.1c-0.1,0.1-0.1,0.1-0.2,0.2c-1,0.8-2,1.7-2.9,2.6
				c-0.5,0.5-0.9,0.9-1.4,1.4c-0.5,0.5-0.9,1-1.4,1.5c-0.1,0.1-0.2,0.2-0.3,0.3c-0.1,0.1-0.2,0.2-0.2,0.3c-0.4,0.5-0.8,0.9-1.1,1.4
				c-0.3,0.4-0.6,0.9-1,1.3c-0.6,0.9-1.2,1.8-1.8,2.8c-0.9,1.5-1.7,3-2.5,4.6c-0.3,0.7-0.7,1.5-1,2.2c-0.5,1.1-0.9,2.2-1.3,3.3
				c0,0.1-0.1,0.2-0.1,0.3c-0.6,1.7-1.2,3.6-1.7,5.5c0,0.1-0.1,0.2-0.1,0.3c-0.1,0.3,0.3,0.6,0.5,0.4c0.2-0.2,0.5-0.4,0.8-0.6
				c0.1-0.1,0.2-0.1,0.3-0.2c0,0,0,0,0,0c0.4-0.3,0.9-0.6,1.5-1c0,0,0.1-0.1,0.1-0.1c0.1-0.1,0.2-0.1,0.3-0.2
				c0.1-0.1,0.2-0.1,0.3-0.2c0.4-0.2,0.7-0.5,1.1-0.7c0.1,0,0.1-0.1,0.2-0.1c0.1-0.1,0.2-0.1,0.3-0.2c0.1-0.1,0.3-0.2,0.4-0.2
				c0.4-0.3,0.9-0.5,1.3-0.8c0,0,0.1,0,0.1-0.1c0.2-0.1,0.4-0.2,0.6-0.3c0.1,0,0.1-0.1,0.2-0.1c0.4-0.2,0.9-0.5,1.3-0.7
				c0.1,0,0.1-0.1,0.2-0.1c0.2-0.1,0.3-0.2,0.5-0.3c0.1,0,0.2-0.1,0.2-0.1c0.3-0.2,0.6-0.3,0.9-0.5c0.1-0.1,0.2-0.1,0.3-0.2
				c0.1,0,0.2-0.1,0.3-0.1c0.1-0.1,0.2-0.1,0.4-0.2c0.1-0.1,0.3-0.1,0.4-0.2c0.2-0.1,0.3-0.2,0.5-0.2l0.2-0.1
				c0.1-0.1,0.3-0.1,0.4-0.2c0.1,0,0.2-0.1,0.3-0.1c0.1,0,0.2-0.1,0.3-0.1c0.1-0.1,0.3-0.1,0.4-0.2c0.1,0,0.3-0.1,0.4-0.1
				c0.1,0,0.2-0.1,0.3-0.1c0.2-0.1,0.4-0.1,0.6-0.2c0,0,0.1,0,0.1,0c0.2-0.1,0.3-0.1,0.5-0.1c0.1,0,0.1,0,0.2-0.1
				c0.2,0,0.3-0.1,0.5-0.1c0,0,0.1,0,0.1,0c0.2,0,0.4-0.1,0.5-0.1c0,0,0,0,0.1,0c0.1,0,0.3,0,0.4,0c0.1,0,0.1,0,0.2,0
				c0.1,0,0.2,0,0.2,0c0.1,0,0.2,0,0.3,0c0.1,0,0.2,0,0.3,0c0.1,0,0.1,0,0.2,0c0.1,0,0.2,0.1,0.3,0.1c0,0,0.1,0,0.1,0
				c0.1,0,0.3,0.1,0.4,0.2c1.9,1-3.1,3.5-9.3,9.5c-6.8,6.6-15.1,17.5-17.2,35.5c-0.6,5.4-0.2,10.8,1.1,15.9c0.4,1.7,1,3.4,1.6,5
				c0.3,0.8,0.7,1.6,1,2.4c0.7,1.6,1.6,3.1,2.5,4.6c0.5,0.7,1,1.5,1.5,2.2c1,1.4,2.2,2.8,3.4,4.1c1.2,1.3,2.6,2.5,4,3.6
				c1,0.8,2.1,1.6,3.3,2.3c0.3,0.2,0.6,0.4,0.9,0.6c0.2,0.1,0.5,0.3,0.7,0.4c0.3,0.1,0.5,0.3,0.8,0.4c1,0.5,2,1,3,1.5
				c0.1,0,0.1,0.1,0.2,0.1c1.1,0.5,2.3,0.9,3.5,1.4c0.3,0.1,0.5-0.2,0.4-0.4c0-0.1-0.1-0.2-0.1-0.2c0,0-0.1-0.1-0.1-0.1
				c-0.1-0.1-0.1-0.3-0.2-0.4c0,0,0,0,0,0c-0.1-0.1-0.1-0.2-0.2-0.3c0-0.1-0.1-0.1-0.1-0.2c-0.1-0.1-0.2-0.3-0.2-0.4
				c0,0,0-0.1-0.1-0.1c-0.2-0.3-0.4-0.7-0.6-1.1c0-0.1-0.1-0.1-0.1-0.2c-0.1-0.2-0.2-0.3-0.3-0.5c0-0.1-0.1-0.1-0.1-0.2
				c-0.1-0.1-0.1-0.3-0.2-0.4c-0.1-0.1-0.1-0.2-0.2-0.4c-0.1-0.1-0.1-0.3-0.2-0.4c-0.1-0.1-0.1-0.3-0.2-0.4
				c-0.1-0.1-0.1-0.3-0.2-0.4c-0.1-0.2-0.1-0.3-0.2-0.5c-0.1-0.1-0.1-0.3-0.2-0.4c-0.1-0.2-0.1-0.3-0.2-0.5
				c-0.1-0.1-0.1-0.3-0.2-0.5c-0.1-0.2-0.1-0.4-0.2-0.5c-0.1-0.2-0.1-0.3-0.2-0.5c-0.1-0.2-0.1-0.4-0.2-0.6
				c-0.1-0.2-0.1-0.3-0.2-0.5c-0.1-0.2-0.1-0.4-0.2-0.6c-0.1-0.2-0.1-0.3-0.2-0.5c-0.1-0.2-0.1-0.4-0.2-0.6
				c-0.1-0.2-0.1-0.4-0.2-0.6c-0.1-0.2-0.1-0.4-0.2-0.6c-0.1-0.2-0.1-0.4-0.2-0.6c-0.1-0.2-0.1-0.4-0.2-0.6
				c-0.1-0.2-0.1-0.4-0.2-0.6c-0.1-0.2-0.1-0.4-0.2-0.6c-0.1-0.2-0.1-0.4-0.2-0.6c0-0.2-0.1-0.4-0.1-0.6c0-0.2-0.1-0.3-0.1-0.5
				c-0.1-0.2-0.1-0.5-0.2-0.8c0-0.1-0.1-0.3-0.1-0.5c-0.1-0.3-0.1-0.5-0.2-0.8c0-0.2-0.1-0.4-0.1-0.6c0-0.2-0.1-0.5-0.1-0.7
				c0-0.2,0-0.4-0.1-0.5c0-0.3-0.1-0.5-0.1-0.8c0-0.2,0-0.3,0-0.5c0-0.3-0.1-0.5-0.1-0.8c0-0.2,0-0.3,0-0.5c0-0.3,0-0.5,0-0.8
				c0-0.2,0-0.4,0-0.6c0-0.2,0-0.5,0-0.7c0-0.2,0-0.5,0-0.7c0-0.2,0-0.4,0-0.6c0-0.2,0-0.5,0-0.7c0-0.2,0-0.4,0-0.6
				c0-0.4,0.1-0.8,0.1-1.3c0,0,0-0.1,0-0.1c0.1-0.4,0.1-0.8,0.2-1.2l0-0.2c0.1-0.3,0.1-0.6,0.2-0.9c0-0.1,0.1-0.3,0.1-0.4
				c0.1-0.4,0.2-0.9,0.4-1.3c0,0,0,0,0,0.1c0,0,0,0,0,0.1c0,0,0,0.1,0,0.1c0,0,0,0.1,0,0.1c0,0.1,0,0.1,0.1,0.2c0,0.1,0,0.1,0.1,0.2
				c0,0.1,0.1,0.2,0.1,0.3c0,0.1,0.1,0.1,0.1,0.2c0,0.1,0.1,0.2,0.1,0.3c0,0.1,0.1,0.2,0.1,0.3c0.1,0.1,0.1,0.3,0.2,0.5
				c0,0.1,0.1,0.2,0.1,0.2c0.1,0.2,0.2,0.5,0.3,0.8c0,0,0,0,0,0c0.1,0.3,0.3,0.6,0.4,0.9c0,0.1,0.1,0.2,0.1,0.3
				c0.1,0.2,0.2,0.4,0.3,0.7c0.1,0.1,0.1,0.3,0.2,0.4c0.1,0.2,0.2,0.4,0.3,0.6c0.1,0.1,0.1,0.3,0.2,0.4c0.1,0.2,0.2,0.4,0.4,0.7
				c0.1,0.2,0.2,0.3,0.3,0.5c0.1,0.2,0.3,0.5,0.4,0.7c0.1,0.2,0.2,0.3,0.3,0.5c0.2,0.3,0.3,0.5,0.5,0.8c0.1,0.1,0.2,0.3,0.3,0.4
				c0.3,0.4,0.5,0.8,0.8,1.2c0,0,0,0.1,0.1,0.1c0.3,0.4,0.6,0.9,0.9,1.3c0.1,0.1,0.2,0.3,0.3,0.4c0.2,0.3,0.5,0.6,0.7,0.9
				c0.1,0.2,0.3,0.4,0.4,0.5c0.2,0.3,0.5,0.6,0.7,0.9c0,0,0,0,0,0.1c0.1,0.2,0.3,0.3,0.4,0.5c0.2,0.3,0.5,0.6,0.7,0.8
				c0.2,0.2,0.3,0.4,0.5,0.6c0.3,0.3,0.5,0.6,0.8,0.9c0.2,0.2,0.3,0.4,0.5,0.6c0.3,0.3,0.6,0.6,0.9,0.9c0.2,0.2,0.3,0.3,0.5,0.5
				c0.4,0.4,0.9,0.8,1.3,1.2c0.1,0.1,0.1,0.1,0.2,0.1c0.5,0.5,1.1,0.9,1.6,1.4c0.2,0.1,0.4,0.3,0.5,0.4c0.4,0.3,0.8,0.6,1.2,0.9
				c0.2,0.2,0.5,0.3,0.7,0.5c0.4,0.3,0.8,0.6,1.1,0.8c0.3,0.2,0.5,0.4,0.8,0.5c0.4,0.3,0.8,0.5,1.2,0.8c0.3,0.2,0.5,0.3,0.8,0.5
				c0.4,0.3,0.8,0.5,1.3,0.8c0.3,0.2,0.5,0.3,0.8,0.5c0.5,0.3,0.9,0.5,1.4,0.8c0.3,0.1,0.5,0.3,0.8,0.4c0.7,0.3,1.3,0.7,2,1
				c0.1,0.1,0.2,0.1,0.3,0.1l0,0c0.7,0.3,1.4,0.6,2.1,0.9c2.8,1.2,5.9,2.3,9.2,3.2c1,0.3,2.1,0.5,3.2,0.6c0.7,0.1,1.6,0.2,2.6,0.4
				c0,0,0,0,0,0c0.3,0,0.6,0.1,1,0.1c0.1,0,0.2,0,0.3,0.1c0.3,0,0.5,0.1,0.8,0.1c0.1,0,0.3,0,0.4,0.1c0.2,0,0.5,0.1,0.7,0.1
				c0.2,0,0.3,0.1,0.5,0.1c0.3,0,0.5,0.1,0.8,0.1c0.2,0,0.4,0.1,0.6,0.1c0.3,0.1,0.5,0.1,0.8,0.2c0.2,0,0.4,0.1,0.6,0.1
				c0.3,0.1,0.5,0.1,0.8,0.2c0.2,0,0.4,0.1,0.6,0.1c0.3,0.1,0.6,0.1,0.9,0.2c0.2,0,0.4,0.1,0.6,0.1c0.3,0.1,0.7,0.2,1,0.3
				c0.2,0,0.3,0.1,0.5,0.1c0.5,0.1,0.9,0.2,1.4,0.4c0.1,0,0.2,0,0.2,0.1c0.5,0.1,1.1,0.3,1.6,0.5c0.2,0,0.3,0.1,0.5,0.1
				c0.4,0.1,0.8,0.2,1.2,0.4c0.2,0.1,0.4,0.1,0.6,0.2c0.4,0.1,0.7,0.2,1.1,0.4c0.2,0.1,0.5,0.2,0.7,0.2c0.3,0.1,0.7,0.2,1,0.4
				c0.2,0.1,0.5,0.2,0.7,0.3c0.3,0.1,0.7,0.3,1,0.4l0.7,0.3c0.3,0.1,0.7,0.3,1,0.4c0.2,0.1,0.5,0.2,0.7,0.3c0.3,0.1,0.7,0.3,1,0.5
				c0.2,0.1,0.5,0.2,0.7,0.3c0.4,0.2,0.7,0.3,1.1,0.5c0.2,0.1,0.4,0.2,0.7,0.3c0.4,0.2,0.9,0.4,1.3,0.6c0.2,0.1,0.3,0.2,0.5,0.2
				c0.6,0.3,1.2,0.6,1.7,0.9c0.1,0.1,0.2,0.1,0.3,0.2c0.5,0.3,0.9,0.5,1.4,0.8c0.2,0.1,0.4,0.2,0.6,0.4c0.4,0.2,0.7,0.4,1.1,0.7
				c0.2,0.1,0.4,0.3,0.7,0.4c0.3,0.2,0.7,0.4,1,0.7c0.2,0.2,0.5,0.3,0.7,0.5c0.3,0.2,0.6,0.5,0.9,0.7c0.2,0.2,0.4,0.3,0.7,0.5
				c0.3,0.2,0.6,0.5,0.9,0.7c0.2,0.2,0.4,0.4,0.6,0.5c0.3,0.3,0.6,0.5,0.9,0.8c0.2,0.2,0.4,0.4,0.6,0.6c0.3,0.3,0.6,0.6,0.9,0.8
				c0.2,0.2,0.4,0.4,0.6,0.5c0.3,0.3,0.6,0.7,0.9,1c0.1,0.2,0.3,0.3,0.4,0.5c0.4,0.5,0.9,1,1.3,1.5c0,0,0,0.1,0.1,0.1
				c0.4,0.5,0.8,1.1,1.2,1.6c0.8,1.2,1.7,2.4,2.7,3.5c0.8,1,1.8,2.3,3,3.9c0.4,0.5,0.8,1.1,1.2,1.6c0.8,1.1,1.6,2.3,2.5,3.6
				c-3.3,1.7-6.7,3.2-10.3,4.4c-1.1-1.2-2.4-2.5-3.8-3.8c-1.1-1-2.2-2-3.4-3.1c-0.6-0.5-1.2-1.1-1.8-1.6c-1.3-1.1-2.6-2.1-4-3.2
				c-2.1-1.6-4.4-3.1-6.7-4.6c-3.8-2.4-8-4.6-12.5-6.4c-5.8-2.3-12.1-3.9-18.8-4.5c-1.1-0.1-2.2-0.2-3.2-0.3
				c-1.1-0.1-2.1-0.2-3.1-0.3c-0.8-0.1-1.5-0.2-2.3-0.3c-1.5-0.2-2.9-0.4-4.3-0.6c-0.7-0.1-1.4-0.2-2.1-0.3c-1.8-0.3-3.6-0.6-5.2-1
				c-1.4-0.3-2.7-0.6-4-0.9c-0.3-0.1-0.6-0.1-0.9-0.2c-1.8-0.4-3.4-0.9-5-1.3c-0.3-0.1-0.5-0.1-0.7-0.2c-0.8-0.2-1.6-0.5-2.4-0.7
				c-0.4-0.1-0.9-0.3-1.3-0.4c-1-0.3-1.9-0.6-2.8-0.9c-0.3-0.1-0.5-0.2-0.8-0.3c-0.9-0.3-1.7-0.7-2.5-1c1.6,4.7,3.6,9.1,6,13.3
				c13.2,23.1,38,38.6,66.5,38.6c4.3,0,8.6-0.4,12.7-1.1c4.7-0.8,9.2-2,13.5-3.5c3.5-1.3,6.9-2.8,10.2-4.6c3-1.6,5.8-3.4,8.5-5.4
				c3.4-2.5,6.6-5.2,9.6-8.3c2.4-2.4,4.6-5,6.6-7.7c9.7-12.8,15.4-28.7,15.4-46V113c0.9-1.9,1.4-3.9,1.1-6c-0.1-1-0.5-2-1.1-3v-3.4
				c0.4-0.3,0.9-0.6,1.3-1c2.1-1.9,4.6-5.6,5.5-12.6c0,0,8.1-0.3,5.6-7.8c0,0-0.2-0.3-0.6-0.9c-0.4-0.6-1-1.6-1.8-2.7
				c-1.5-2.1-3.7-5-6.6-8c-0.4-0.4-0.8-0.9-1.3-1.3c-0.7-0.7-1.4-1.4-2.1-2V17.3h-28.3c-0.1-0.2-0.1-0.3-0.1-0.3c0,0.1,0,0.2,0,0.3
				c-0.7,8.3-3.2,10.2-4.5,10.7c-0.2-0.2-0.4-0.4-0.5-0.6c1.6-4,2.1-7.3,1.8-10.1c-1.1-11-14.4-13-14.4-13c7.9,3.1,9.8,8.3,9.5,13
				c-0.1,2.7-1,5.3-1.8,7.2c-0.1-0.1-0.3-0.1-0.4-0.2c-0.2-0.1-0.4-0.2-0.7-0.3c-0.4-0.1-0.7-0.3-1.1-0.4c-0.2-0.1-0.4-0.1-0.6-0.2
				c-0.5-0.2-1.1-0.3-1.6-0.5c0,0,0,0,0,0c0.1,0,0.1,0,0.2-0.1c0,0-0.1-0.1-0.3-0.4c0-0.1-0.1-0.1-0.1-0.2c-0.1-0.1-0.1-0.2-0.2-0.3
				c0-0.1-0.1-0.2-0.1-0.2c-0.1-0.1-0.2-0.3-0.3-0.4c-0.1-0.1-0.2-0.2-0.2-0.4c-0.1-0.1-0.2-0.3-0.3-0.4c-0.1-0.1-0.2-0.3-0.3-0.4
				c-0.1-0.2-0.2-0.3-0.3-0.5c-0.1-0.1-0.2-0.3-0.3-0.4c-0.1-0.2-0.3-0.4-0.4-0.6c-0.1-0.2-0.2-0.3-0.3-0.5
				c-0.1-0.2-0.3-0.4-0.4-0.7c0,0,0,0,0,0c-0.1-0.2-0.2-0.4-0.3-0.6c-0.1-0.2-0.3-0.5-0.4-0.7c-0.1-0.2-0.2-0.4-0.3-0.6
				c-0.1-0.2-0.3-0.5-0.4-0.7c-0.1-0.2-0.2-0.4-0.3-0.6c-0.1-0.3-0.3-0.5-0.4-0.8c-0.1-0.2-0.2-0.5-0.3-0.7
				c-0.1-0.3-0.3-0.5-0.4-0.8c-0.1-0.2-0.2-0.5-0.3-0.7c-0.1-0.3-0.3-0.6-0.4-0.8c-0.1-0.2-0.2-0.5-0.3-0.7
				c-0.1-0.3-0.2-0.6-0.4-0.9c-0.1-0.2-0.2-0.5-0.3-0.7c-0.1-0.3-0.2-0.6-0.3-0.8c-0.1-0.2-0.2-0.5-0.2-0.7
				c-0.1-0.3-0.2-0.6-0.3-0.9c-0.5-1.7-1.8-3-3.5-3.6c0,0-0.1,0-0.1-0.1c-0.2-0.1-0.4-0.1-0.6-0.1c-0.1,0-0.1,0-0.2,0c0,0,0,0,0,0
				c0,0-0.1,0-0.1,0c-0.3-0.1-0.7-0.1-1.1-0.2c0,0,0,0-0.1,0c-0.4-0.1-0.8-0.1-1.3-0.2c-0.1,0-0.2,0-0.2,0c-0.4-0.1-0.8-0.1-1.2-0.2
				c-0.1,0-0.3,0-0.5-0.1c-0.4-0.1-0.8-0.1-1.2-0.1c-0.3,0-0.7-0.1-1-0.1c-0.2,0-0.5-0.1-0.7-0.1c-0.4,0-0.9-0.1-1.3-0.1
				c-0.2,0-0.3,0-0.5,0c-0.5,0-1-0.1-1.6-0.1c-0.1,0-0.3,0-0.4,0c-0.6,0-1.1-0.1-1.7-0.1c-0.1,0-0.2,0-0.3,0c-0.7,0-1.4-0.1-2.1-0.1
				h-0.1c-0.5,0-1.1,0-1.7,0c-0.2,0-0.4,0-0.6,0c-0.6,0-1.2,0-1.8,0c-0.2,0-0.4,0-0.6,0C94.3,0,93.8,0,93.3,0"/>
		</defs>
		<clipPath id="SVGID_57_">
			<use xlink:href="#SVGID_56_"  style="overflow:visible;"/>
		</clipPath>
		
			<linearGradient id="SVGID_58_" gradientUnits="userSpaceOnUse" x1="841.686" y1="492.5902" x2="845.9456" y2="492.5902" gradientTransform="matrix(-41.7781 39.2669 39.2669 41.7781 16006.4844 -53612.7852)">
			<stop  offset="0" style="stop-color:#F4BF8C"/>
			<stop  offset="0.5097" style="stop-color:#F4BF8C"/>
			<stop  offset="1" style="stop-color:#98623E"/>
		</linearGradient>
		<polygon class="st22" points="289.2,110.3 86.8,300.5 -104,97.4 98.3,-92.7 		"/>
	</g>
</g>
</svg>
