<?xml version="1.0" encoding="utf-8"?>
<!-- Generator: Adobe Illustrator 21.0.0, SVG Export Plug-In . SVG Version: 6.00 Build 0)  -->
<svg version="1.1" id="Layer_1" xmlns="http://www.w3.org/2000/svg" xmlns:xlink="http://www.w3.org/1999/xlink" x="0px" y="0px"
	 viewBox="0 0 807.1 389" style="enable-background:new 0 0 807.1 389;" xml:space="preserve">
<style type="text/css">
	.st0{fill:#FFFFFF;}
	.st1{filter:url(#Adobe_OpacityMaskFilter);}
	.st2{clip-path:url(#SVGID_2_);fill:url(#SVGID_4_);}
	.st3{clip-path:url(#SVGID_2_);mask:url(#SVGID_3_);fill:#FFFFFF;}
	.st4{filter:url(#Adobe_OpacityMaskFilter_1_);}
	.st5{clip-path:url(#SVGID_6_);fill:url(#SVGID_8_);}
	.st6{clip-path:url(#SVGID_6_);mask:url(#SVGID_7_);fill:#FFFFFF;}
	.st7{clip-path:url(#SVGID_10_);fill:#FFFFFF;}
	.st8{clip-path:url(#SVGID_12_);fill:#FFFFFF;}
	.st9{clip-path:url(#SVGID_14_);fill:#FFFFFF;}
	.st10{clip-path:url(#SVGID_16_);fill:#FFFFFF;}
	.st11{clip-path:url(#SVGID_18_);fill:#FFFFFF;}
	.st12{clip-path:url(#SVGID_20_);fill:#FFFFFF;}
	.st13{clip-path:url(#SVGID_22_);fill:#FFFFFF;}
	.st14{clip-path:url(#SVGID_24_);fill:#FFFFFF;}
	.st15{clip-path:url(#SVGID_26_);fill:#FFFFFF;}
	.st16{clip-path:url(#SVGID_28_);fill:#FFFFFF;}
	.st17{clip-path:url(#SVGID_30_);fill:#FFFFFF;}
	.st18{clip-path:url(#SVGID_32_);fill:#FFFFFF;}
	.st19{clip-path:url(#SVGID_34_);fill:#FFFFFF;}
	.st20{clip-path:url(#SVGID_36_);fill:#FFFFFF;}
	.st21{clip-path:url(#SVGID_38_);fill:#FFFFFF;}
</style>
<path class="st0" d="M221.4,377c-0.7,6.4-4,9.6-9.9,9.6c-5.9-0.1-9.8-4.8-9.8-11.8c0-7,3.9-11.6,10-11.6c4.4,0,7.6,2.3,8.5,6.1
	l0.1,0.5h1.6l-0.9-6.3l-0.3-0.2c-1.8-1.2-4.8-2.6-9.1-2.6c-8.4,0-14.1,5.7-14.1,14.1c0,8.4,5.6,14.1,13.8,14.1c4.8,0,8.6-2,10.9-5.8
	l0.1-0.1l0.5-6.7h-1.6L221.4,377z"/>
<path class="st0" d="M258.5,360.8c-8.3,0-13.9,5.7-13.9,14.1c0,8.4,5.6,14.1,13.9,14.1c8.3,0,13.9-5.7,13.9-14.1
	C272.5,366.5,266.9,360.8,258.5,360.8 M258.5,363.2c5.9,0,9.8,4.7,9.8,11.7c0,7-3.9,11.7-9.8,11.7c-5.8,0-9.8-4.7-9.8-11.7
	C248.8,367.9,252.7,363.2,258.5,363.2"/>
<path class="st0" d="M312.5,363h1.3c0.9,0,1.6,0.7,1.6,1.6v16.6l-19.2-20.5h-1.4l0.1,0.8c0,0,0.3,2.1,0.3,4.5v19.2
	c0,0.9-0.7,1.6-1.6,1.6h-1.3l0,1.7h8.9l0-1.7h-1.3c-0.9,0-1.6-0.7-1.6-1.5v-16.7l19.2,20.5h1.4l-0.1-0.8c0,0-0.3-2.3-0.3-4.6v-19.1
	c0-0.9,0.7-1.6,1.6-1.6h1.3l0-1.7h-8.9L312.5,363z"/>
<path class="st0" d="M347.7,369.8c-1.2-1.1-1.3-2.4-1.3-2.9c0-1.7,1.4-3.6,3.9-3.6c1.1,0,2,0.4,2.7,1c0.6,0.5,0.8,1.3,0.8,2.1v0.7
	h1.7v-5.9h-2.1c-1.1-0.2-2.3-0.4-3.2-0.4c-4.6,0-7.2,3.6-7.2,6.9c0,1.9,0.8,3.8,2.2,5.1l7.1,6.6c0.8,0.8,1.2,1.8,1.2,3
	c0,2.8-2.2,4.2-4.3,4.3c-1.4,0.1-2.6-0.4-3.4-1.2c-0.9-1-1.4-2.4-1.2-4.1l0.1-0.7h-1.5L343,381c-0.6,1.7-0.8,4.2-0.4,5.5l0,0.2
	l0.1,0.1c1.7,1.8,5,2.2,6.7,2.2c4.5,0,7.6-3,7.6-7.6c0-2.1-0.7-3.7-2.1-5L347.7,369.8z"/>
<path class="st0" d="M396.6,363h1.3c0.7,0,1.3,0.5,1.3,1.1v14.6c0,4.8-3,7.8-7.6,7.8c-4.4,0-7.2-3.3-7.2-8.3v-14.1
	c0-0.7,0.6-1.1,1.3-1.1h1.3v-1.7h-8.8v1.7h1.3c0.7,0,1.3,0.5,1.3,1.2v14.6c0,6.1,4.4,10.2,10.9,10.2c6.3,0,10.6-4.1,10.6-10.3
	l0-14.6c0-0.7,0.6-1.1,1.3-1.1h1.3v-1.7h-8.1V363z"/>
<path class="st0" d="M442.6,381.6c-1.1,2.8-2.5,4.4-5.9,4.4H432v-21.4c0-0.9,0.8-1.7,1.7-1.7h1.1l0-1.7h-9.4l0,1.7h1.1
	c0.9,0,1.7,0.8,1.7,1.7v20.5c0,0.9-0.8,1.7-1.7,1.7h-1.1l0,1.7h16.4l2.6-7.3l-1.8,0L442.6,381.6z"/>
<path class="st0" d="M476.8,361.3h-12.5c-1.6,0-3.6-0.4-4.2-0.6l-0.9-0.4v6.3l1.7,0v-1.3c0-0.8,0.6-1.5,1.4-1.5h6.4v21.5
	c0,0.9-0.8,1.6-1.7,1.6h-1.1l0,1.7h9.4l0-1.7h-1.1c-0.9,0-1.7-0.7-1.7-1.6v-21.5h6.3c0.8,0,1.5,0.7,1.5,1.5v1.3l1.7,0v-6.3l-0.9,0.4
	C480.4,360.9,478.4,361.3,476.8,361.3"/>
<path class="st0" d="M510.3,363h1.1l0-1.7H502l0,1.7h1.1c0.9,0,1.7,0.7,1.7,1.6v20.5c0,0.9-0.8,1.7-1.7,1.7H502l0,1.7h9.4l0-1.7
	h-1.1c-0.9,0-1.7-0.7-1.7-1.7v-20.5C508.6,363.8,509.3,363,510.3,363"/>
<path class="st0" d="M552.5,363h1.3c0.9,0,1.6,0.7,1.6,1.6v16.6l-19.2-20.5h-1.4l0.1,0.8c0,0,0.3,2.1,0.3,4.5v19.2
	c0,0.9-0.7,1.6-1.6,1.6h-1.3l0,1.7h8.9l0-1.7H540c-0.9,0-1.6-0.7-1.6-1.5v-16.7l19.2,20.5h0.6h0.8l-0.1-0.8c0,0-0.3-2.3-0.3-4.6
	v-19.1c0-0.9,0.7-1.6,1.6-1.6h1.3l0-1.7h-9L552.5,363z"/>
<path class="st0" d="M600.9,374.8v1.7h1.2c1.2,0,1.2,0.7,1.2,1v6.2c-2.1,1.8-4.8,2.8-7.7,2.8c-5.9,0-9.8-4.7-9.8-11.7
	c0-7,4-11.7,9.8-11.7c4.6,0,7.7,2.2,8.7,6.1l0.1,0.5h1.6l-0.9-6.3l-0.3-0.2c-2.8-1.8-5.7-2.6-9.3-2.6c-8.3,0-13.9,5.7-13.9,14.1
	c0,8.4,5.6,14.1,13.9,14.1c6.7,0,10.1-3.5,11.2-5l0.1-0.2v-6.3c0-0.3,0.1-0.6,0.2-0.7c0.2-0.2,0.7-0.3,1-0.3h1.2v-1.7H600.9z"/>
<g>
	<defs>
		<rect id="SVGID_1_" x="619" y="376.9" width="162.9" height="2.4"/>
	</defs>
	<use xlink:href="#SVGID_1_"  style="overflow:visible;fill:#FFFFFF;"/>
	<clipPath id="SVGID_2_">
		<use xlink:href="#SVGID_1_"  style="overflow:visible;"/>
	</clipPath>
	<defs>
		<filter id="Adobe_OpacityMaskFilter" filterUnits="userSpaceOnUse" x="619" y="376.9" width="162.9" height="2.4">
			<feColorMatrix  type="matrix" values="1 0 0 0 0  0 1 0 0 0  0 0 1 0 0  0 0 0 1 0"/>
		</filter>
	</defs>
	<mask maskUnits="userSpaceOnUse" x="619" y="376.9" width="162.9" height="2.4" id="SVGID_3_">
		<g class="st1">
			
				<linearGradient id="SVGID_4_" gradientUnits="userSpaceOnUse" x1="-440.7053" y1="595.6268" x2="-436.4456" y2="595.6268" gradientTransform="matrix(38.2327 0 0 -38.2327 17468.3672 23150.4707)">
				<stop  offset="0" style="stop-color:#FFFFFF"/>
				<stop  offset="1" style="stop-color:#1A1A1A"/>
			</linearGradient>
			<rect x="619" y="376.9" class="st2" width="162.9" height="2.4"/>
		</g>
	</mask>
	<rect x="619" y="376.9" class="st3" width="162.9" height="2.4"/>
</g>
<g>
	<defs>
		<rect id="SVGID_5_" x="25.3" y="376.9" width="162.9" height="2.4"/>
	</defs>
	<use xlink:href="#SVGID_5_"  style="overflow:visible;fill:#FFFFFF;"/>
	<clipPath id="SVGID_6_">
		<use xlink:href="#SVGID_5_"  style="overflow:visible;"/>
	</clipPath>
	<defs>
		<filter id="Adobe_OpacityMaskFilter_1_" filterUnits="userSpaceOnUse" x="25.3" y="376.9" width="162.9" height="2.4">
			<feColorMatrix  type="matrix" values="1 0 0 0 0  0 1 0 0 0  0 0 1 0 0  0 0 0 1 0"/>
		</filter>
	</defs>
	<mask maskUnits="userSpaceOnUse" x="25.3" y="376.9" width="162.9" height="2.4" id="SVGID_7_">
		<g class="st4">
			
				<linearGradient id="SVGID_8_" gradientUnits="userSpaceOnUse" x1="-473.4415" y1="598.4726" x2="-469.1819" y2="598.4726" gradientTransform="matrix(-38.2327 0 0 38.2327 -17912.8438 -22503.2168)">
				<stop  offset="0" style="stop-color:#FFFFFF"/>
				<stop  offset="1" style="stop-color:#1A1A1A"/>
			</linearGradient>
			<rect x="25.3" y="376.9" class="st5" width="162.9" height="2.4"/>
		</g>
	</mask>
	<rect x="25.3" y="376.9" class="st6" width="162.9" height="2.4"/>
</g>
<g>
	<defs>
		<path id="SVGID_9_" d="M55.1,242.4v6.8h4.3c2.5,0,3.4,0.5,3.6,0.7c0.6,0.5,0.7,0.9,0.7,1.2c0,0.7-0.3,1.8-1.5,3.7
			c-0.2,0.3-0.8,1.1-2.4,2.9c-1.3,1.5-2.9,3.2-4.9,5.2c-1.9,2-4.1,4.2-6.5,6.6c-2.4,2.4-4.8,4.8-7.3,7.1c-2.4,2.4-4.8,4.6-7.1,6.8
			c-0.9,0.9-1.8,1.7-2.7,2.4v-24.5c0-5.8,0.4-7.8,0.7-8.5c0.2-0.6,0.5-1,1-1.4c0.5-0.5,1.1-0.9,1.8-1.2c0.7-0.3,1.5-0.6,2.3-0.7
			c0.8-0.2,1.6-0.2,2.4-0.2h5.3v-6.8H0v6.8h5.5c1.9,0,3.7,0.5,5.4,1.4c0.6,0.3,1.1,0.7,1.4,1.1c0.3,0.3,0.5,0.8,0.7,1.4
			c0.2,0.7,0.4,1.7,0.4,3c0.1,1.4,0.1,3.1,0.1,5.2v61.4c0,7.3-0.9,9.1-1.3,9.5c-1.3,1.7-3.6,2.6-6.9,2.6H0v6.8h44.7v-6.8h-5.3
			c-1.9,0-3.6-0.5-5.4-1.4c-0.7-0.4-1.2-0.7-1.5-1.1c-0.3-0.3-0.5-0.7-0.6-1.3c-0.2-0.7-0.4-1.7-0.4-3c-0.1-1.3-0.1-3.1-0.1-5.3
			v-25.6L60.5,326c1.3,1.2,2.2,2.2,2.8,2.9c0.7,0.9,1.1,1.4,1.3,1.7c0.2,0.3,0.2,0.5,0.2,0.6c0,0.4,0.1,0.8,0.1,1.3
			c0,0.2,0,0.6-1,1.4c-0.5,0.3-1.7,0.9-4.6,0.9h-2.1v6.8h49.4V335l-2-0.1c-3.7-0.3-7.6-1.4-11.4-3.3c-3.9-2-8.6-5.8-14.2-11.4
			l-33.5-33.3l27.2-27.2c1.7-1.6,3.3-3,4.7-4.1c1.4-1.1,2.7-2,3.9-2.8c1.2-0.7,2.2-1.3,3.1-1.7c0.9-0.4,1.8-0.8,2.5-1
			c1.5-0.4,3.2-0.7,5.1-0.8l2-0.1v-6.7H55.1z"/>
	</defs>
	<use xlink:href="#SVGID_9_"  style="overflow:visible;fill:#FFFFFF;"/>
	<clipPath id="SVGID_10_">
		<use xlink:href="#SVGID_9_"  style="overflow:visible;"/>
	</clipPath>
	<rect x="0" y="242.4" class="st7" width="106.7" height="99.2"/>
</g>
<g>
	<defs>
		<path id="SVGID_11_" d="M126.3,242.4v6.8h5.5c1.9,0,3.7,0.5,5.4,1.4c0.7,0.4,1.2,0.7,1.5,1.1c0.2,0.3,0.5,0.7,0.6,1.3
			c0.2,0.8,0.4,1.8,0.5,3c0.1,1.4,0.1,3.1,0.1,5.3v61.4c0,7.3-0.9,9.1-1.3,9.5c-1.3,1.7-3.6,2.6-6.9,2.6h-5.5v6.8h44.9v-6.8h-5.5
			c-1.9,0-3.6-0.5-5.4-1.4c-0.6-0.4-1.2-0.7-1.5-1.1c-0.3-0.3-0.5-0.7-0.6-1.3c-0.2-0.7-0.4-1.7-0.5-3c-0.1-1.3-0.1-3.1-0.1-5.3
			v-61.4c0-7.3,1-9.1,1.3-9.5c1.3-1.7,3.5-2.6,6.8-2.6h5.5v-6.8H126.3z"/>
	</defs>
	<use xlink:href="#SVGID_11_"  style="overflow:visible;fill:#FFFFFF;"/>
	<clipPath id="SVGID_12_">
		<use xlink:href="#SVGID_11_"  style="overflow:visible;"/>
	</clipPath>
	<rect x="126.3" y="242.4" class="st8" width="44.9" height="99.2"/>
</g>
<g>
	<defs>
		<path id="SVGID_13_" d="M264.7,240.2v6.6l1.8,0.2c4.1,0.5,5.9,1.4,6.7,2.1c1,0.9,1.5,1.7,1.5,2.5c0,1.2-0.6,4-3.1,10.5l-20.5,50.4
			l-22.2-51.1c-2.5-5.7-3-8.7-3-10.1c0-0.6,0.1-1.1,0.3-1.5c0.1-0.3,0.4-0.6,0.8-0.9c0.4-0.3,1.1-0.7,2.5-1c1.3-0.3,3-0.6,5.1-0.8
			l1.9-0.2v-6.6h-43v6.6l1.9,0.2c2.7,0.2,4.7,0.7,6.2,1.4c1.4,0.7,2.6,1.6,3.6,2.9c0.3,0.3,1.1,1.6,3.5,7.2l36.1,83.2h5.4l33.7-82.2
			c0.8-1.9,1.6-3.7,2.4-5.2c0.7-1.4,1.6-2.6,2.5-3.5c0.9-0.9,2-1.7,3.2-2.3c1.2-0.6,2.8-1.1,4.6-1.4l1.7-0.3v-6.5H264.7z"/>
	</defs>
	<use xlink:href="#SVGID_13_"  style="overflow:visible;fill:#FFFFFF;"/>
	<clipPath id="SVGID_14_">
		<use xlink:href="#SVGID_13_"  style="overflow:visible;"/>
	</clipPath>
	<rect x="193.3" y="240.2" class="st9" width="104.8" height="101.4"/>
</g>
<g>
	<defs>
		<path id="SVGID_15_" d="M348.2,240.2l-33.7,82.2c-0.8,1.9-1.6,3.7-2.4,5.2c-0.7,1.4-1.6,2.6-2.5,3.5c-0.9,0.9-2,1.7-3.2,2.3
			c-1.2,0.6-2.8,1.1-4.6,1.4l-1.7,0.3v6.5h33.5v-6.6l-1.8-0.2c-4.1-0.5-5.9-1.5-6.7-2.1c-1-0.9-1.5-1.7-1.5-2.5
			c0-1.2,0.5-4,3.1-10.5l20.5-50.4l22.2,51.1c2.5,5.7,3,8.7,3,10.1c0,0.6-0.1,1.1-0.3,1.5c-0.1,0.3-0.4,0.6-0.8,0.9
			c-0.4,0.3-1.1,0.7-2.5,1c-1.3,0.3-3,0.6-5.1,0.8l-1.9,0.2v6.6h43V335l-1.9-0.2c-2.7-0.2-4.7-0.7-6.2-1.4c-1.4-0.7-2.6-1.6-3.6-2.8
			c-0.3-0.3-1.1-1.6-3.5-7.2l-36.1-83.2H348.2z"/>
	</defs>
	<use xlink:href="#SVGID_15_"  style="overflow:visible;fill:#FFFFFF;"/>
	<clipPath id="SVGID_16_">
		<use xlink:href="#SVGID_15_"  style="overflow:visible;"/>
	</clipPath>
	<rect x="300.1" y="240.2" class="st10" width="104.8" height="101.4"/>
</g>
<g>
	<defs>
		<path id="SVGID_17_" d="M750.3,240.2l-33.7,82.2c-0.8,2-1.6,3.7-2.4,5.2c-0.7,1.4-1.6,2.6-2.5,3.5c-0.9,0.9-2,1.7-3.2,2.3
			c-1.2,0.6-2.8,1.1-4.6,1.4l-1.7,0.3v6.5h33.5v-6.6l-1.8-0.2c-4.1-0.5-5.9-1.5-6.7-2.1c-1-0.9-1.5-1.7-1.5-2.5
			c0-1.2,0.5-4,3.1-10.5l20.5-50.4l22.2,51.1c2.5,5.7,3,8.7,3,10.1c0,0.6-0.1,1.1-0.2,1.5c-0.1,0.3-0.4,0.6-0.8,0.9
			c-0.4,0.3-1.1,0.7-2.5,1c-1.3,0.3-3,0.6-5.1,0.8l-1.9,0.2v6.6h43V335l-1.9-0.2c-2.7-0.2-4.7-0.7-6.2-1.4c-1.4-0.7-2.6-1.6-3.6-2.8
			c-0.3-0.3-1.1-1.6-3.5-7.2l-36.1-83.2H750.3z"/>
	</defs>
	<use xlink:href="#SVGID_17_"  style="overflow:visible;fill:#FFFFFF;"/>
	<clipPath id="SVGID_18_">
		<use xlink:href="#SVGID_17_"  style="overflow:visible;"/>
	</clipPath>
	<rect x="702.3" y="240.2" class="st11" width="104.8" height="101.4"/>
</g>
<g>
	<defs>
		<path id="SVGID_19_" d="M426.8,242.4v6.8h5.7c3,0,5.1,0.8,6.6,2.4c0.3,0.4,1.4,2.2,1.4,9.7v61.3c0,7-0.8,8.8-1.1,9.2
			c-1.4,2-3.6,3-6.9,3h-5.7v6.8H504l9.3-29.5l-6.3-1.3l-0.7,1.6c-1.2,2.9-2.4,5.4-3.6,7.4c-1.1,2-2.3,3.7-3.4,5
			c-1.1,1.3-2.2,2.4-3.4,3.2c-1.1,0.8-2.4,1.4-3.7,1.9c-2.7,1-7.7,1.5-14.6,1.5h-6.9c-8.3,0-9.9-0.4-10.2-0.6
			c-0.4-0.2-0.8-0.4-1-0.6c-0.3-0.3-0.5-0.7-0.7-1.2c-0.2-0.6-0.4-1.4-0.5-2.4c-0.1-1.1-0.2-2.4-0.2-4v-59.7c0-7.3,0.6-9.2,0.8-9.7
			c0.3-0.6,0.7-1.1,1.2-1.6c0.4-0.4,1.1-0.8,1.9-1.2c0.9-0.4,2.2-0.7,3.7-0.9c1.6-0.2,3.7-0.3,6.1-0.3h2.1v-6.8H426.8z"/>
	</defs>
	<use xlink:href="#SVGID_19_"  style="overflow:visible;fill:#FFFFFF;"/>
	<clipPath id="SVGID_20_">
		<use xlink:href="#SVGID_19_"  style="overflow:visible;"/>
	</clipPath>
	<rect x="426.8" y="242.4" class="st12" width="86.5" height="99.2"/>
</g>
<g>
	<defs>
		<path id="SVGID_21_" d="M536.6,242.4v6.8h5.5c1.9,0,3.7,0.5,5.4,1.4c0.6,0.4,1.2,0.7,1.5,1.1c0.2,0.3,0.5,0.7,0.6,1.3
			c0.2,0.8,0.4,1.8,0.4,3c0.1,1.4,0.1,3.1,0.1,5.3v61.4c0,7.3-0.9,9.1-1.3,9.5c-1.3,1.7-3.6,2.6-6.9,2.6h-5.5v6.8h44.9v-6.8H576
			c-1.9,0-3.6-0.5-5.4-1.4c-0.6-0.4-1.2-0.7-1.5-1.1c-0.3-0.3-0.5-0.7-0.6-1.3c-0.2-0.7-0.4-1.7-0.5-3c-0.1-1.3-0.1-3.1-0.1-5.3
			v-61.4c0-7.3,1-9.1,1.3-9.5c1.3-1.7,3.5-2.6,6.8-2.6h5.5v-6.8H536.6z"/>
	</defs>
	<use xlink:href="#SVGID_21_"  style="overflow:visible;fill:#FFFFFF;"/>
	<clipPath id="SVGID_22_">
		<use xlink:href="#SVGID_21_"  style="overflow:visible;"/>
	</clipPath>
	<rect x="536.6" y="242.4" class="st13" width="44.9" height="99.2"/>
</g>
<g>
	<defs>
		<path id="SVGID_23_" d="M606.7,242.4v26.5h6.6l0.3-1.8c0.4-3.2,1.1-5.8,1.9-7.8c0.8-1.8,1.8-3.2,3-4.2c1.2-1,2.8-1.6,4.6-2
			c2-0.4,4.4-0.6,7.2-0.6h9.3V323c0,6.9-0.9,8.6-1.2,9c-1.3,1.8-3.5,2.7-6.8,2.7h-5.5v6.8h44.5v-6.8h-5.4c-3.1,0-5.3-0.7-6.6-2.2
			c-0.3-0.4-1.4-2.2-1.4-9.5v-70.5h11.3c2.5,0,4.6,0.3,6.4,0.8c1.7,0.5,3.1,1.3,4.3,2.3c1.2,1.1,2.1,2.5,2.9,4.3
			c0.8,1.9,1.4,4.3,1.7,7.1l0.2,1.8h5.6v-26.5H606.7z"/>
	</defs>
	<use xlink:href="#SVGID_23_"  style="overflow:visible;fill:#FFFFFF;"/>
	<clipPath id="SVGID_24_">
		<use xlink:href="#SVGID_23_"  style="overflow:visible;"/>
	</clipPath>
	<rect x="606.7" y="242.4" class="st14" width="82.9" height="99.2"/>
</g>
<g>
	<g>
		<defs>
			<path id="SVGID_25_" d="M437.9,51.2c1.4,0.8,2.7,1.5,4,2.3c2.7,1.7,5.5,3.1,8.6,3.9c1.5,0.3,2.8,1,4.1,1.8
				c1.7,1.1,5.9,4.7,7.2,6.2c0.1,0.1,0.3,0.2,0.4,0.3c0.1,0.1,0.2,0.1,0.2,0.2c0.3,0.4,0.6,0.7,0.9,1.1c0,0,0.1-0.1,0.1-0.1
				c-1-1.4-14.7-15.6-15.4-15.9c-0.7-0.3-1.5-0.6-2.3-0.8c-1-0.3-2-0.4-2.9-0.4C441.1,49.7,439.5,50.1,437.9,51.2"/>
		</defs>
		<use xlink:href="#SVGID_25_"  style="overflow:visible;fill:#FFFFFF;"/>
		<clipPath id="SVGID_26_">
			<use xlink:href="#SVGID_25_"  style="overflow:visible;"/>
		</clipPath>
		
			<rect x="435.4" y="43.3" transform="matrix(0.7287 -0.6849 0.6849 0.7287 82.3323 324.4582)" class="st15" width="30.4" height="30.1"/>
	</g>
	<g>
		<defs>
			<path id="SVGID_27_" d="M439.5,70c0,0,0-0.1,0-0.1C439.4,69.9,439.5,69.9,439.5,70 M439.4,69.8c0-0.1,0-0.2-0.1-0.4
				C439.4,69.6,439.4,69.7,439.4,69.8"/>
		</defs>
		<use xlink:href="#SVGID_27_"  style="overflow:visible;fill:#FFFFFF;"/>
		<clipPath id="SVGID_28_">
			<use xlink:href="#SVGID_27_"  style="overflow:visible;"/>
		</clipPath>
		
			<rect x="439.2" y="69.5" transform="matrix(0.7285 -0.685 0.685 0.7285 71.5501 319.916)" class="st16" width="0.4" height="0.5"/>
	</g>
	<g>
		<defs>
			<path id="SVGID_29_" d="M439.5,70C439.5,70.1,439.5,70.1,439.5,70"/>
		</defs>
		<use xlink:href="#SVGID_29_"  style="overflow:visible;fill:#FFFFFF;"/>
		<clipPath id="SVGID_30_">
			<use xlink:href="#SVGID_29_"  style="overflow:visible;"/>
		</clipPath>
		<rect x="439.4" y="70" transform="matrix(0.729 -0.6846 0.6846 0.729 71.1754 319.8304)" class="st17" width="0.1" height="0.1"/>
	</g>
	<g>
		<defs>
			<path id="SVGID_31_" d="M439.4,69.4c0-0.3-0.1-0.5-0.1-0.6C439.3,69,439.3,69.2,439.4,69.4"/>
		</defs>
		<use xlink:href="#SVGID_31_"  style="overflow:visible;fill:#FFFFFF;"/>
		<clipPath id="SVGID_32_">
			<use xlink:href="#SVGID_31_"  style="overflow:visible;"/>
		</clipPath>
		
			<rect x="439.1" y="68.8" transform="matrix(0.7287 -0.6848 0.6848 0.7287 71.8801 319.5867)" class="st18" width="0.5" height="0.5"/>
	</g>
	<g>
		<defs>
			<path id="SVGID_33_" d="M439.3,68.8c0,0.2,0.1,0.4,0.1,0.6c0,0,0,0,0,0c0-0.1,0-0.2,0-0.3C439.3,69,439.3,68.8,439.3,68.8
				C439.2,68.7,439.3,68.7,439.3,68.8"/>
		</defs>
		<use xlink:href="#SVGID_33_"  style="overflow:visible;fill:#FFFFFF;"/>
		<clipPath id="SVGID_34_">
			<use xlink:href="#SVGID_33_"  style="overflow:visible;"/>
		</clipPath>
		
			<rect x="439" y="68.8" transform="matrix(0.7286 -0.6849 0.6849 0.7286 71.9109 319.6269)" class="st19" width="0.6" height="0.6"/>
	</g>
	<g>
		<defs>
			<path id="SVGID_35_" d="M439.5,70C439.5,70,439.5,70,439.5,70C439.5,70,439.5,70,439.5,70 M439.5,70C439.5,70,439.5,70,439.5,70
				C439.5,70,439.5,70,439.5,70"/>
		</defs>
		<use xlink:href="#SVGID_35_"  style="overflow:visible;fill:#FFFFFF;"/>
		<clipPath id="SVGID_36_">
			<use xlink:href="#SVGID_35_"  style="overflow:visible;"/>
		</clipPath>
		<rect x="439.5" y="70" transform="matrix(0.7301 -0.6834 0.6834 0.7301 70.8089 319.2021)" class="st20" width="0" height="0"/>
	</g>
	<g>
		<defs>
			<path id="SVGID_37_" d="M439.5,70C439.5,70,439.5,70,439.5,70C439.5,70,439.5,70,439.5,70 M439.5,70C439.5,70,439.5,70,439.5,70
				C439.5,70,439.5,70,439.5,70"/>
		</defs>
		<use xlink:href="#SVGID_37_"  style="overflow:visible;fill:#FFFFFF;"/>
		<clipPath id="SVGID_38_">
			<use xlink:href="#SVGID_37_"  style="overflow:visible;"/>
		</clipPath>
		<polygon class="st21" points="439.5,70 439.5,70 439.4,70 439.5,69.9 		"/>
	</g>
	<path class="st0" d="M352.7,20.2L352.7,20.2 M365.5,175.1c3,0.5,6.1,0.8,9.2,0.8c13,0,20.3,3.8,24.2,7.2c0.1,0,0.1,0.1,0.2,0.1
		c0.6,0.5,1,1,1.4,1.4c0.2,0.2,0.4,0.5,0.6,0.7c0.3,0.4,0.6,0.8,0.8,1.1c0.2,0.3,0.4,0.7,0.6,0.9c0.1,0.2,0.2,0.3,0.2,0.4
		c0,0,0,0.1,0.1,0.1c0.1,0.2,0.1,0.2,0.1,0.2c-4-0.5-7.6-0.7-10.7-0.7c-0.5,0-1,0-1.5,0c-0.7,0-1.4,0-2.1,0.1
		C380,185.1,372.2,180.8,365.5,175.1 M448.5,162.7c0,0,0.3,0,0.7,0.2c0.4,0.2,1.1,0.5,1.8,1c0.2,0.1,0.4,0.3,0.6,0.5
		c0.4,0.3,0.8,0.7,1.2,1.2c0.2,0.2,0.4,0.5,0.7,0.8c0.1,0.2,0.3,0.4,0.4,0.6c-1.4,1.7-2.9,3.4-4.5,5
		C449.2,169.2,448.9,166.1,448.5,162.7 M467.7,100.3c3.2-1.7,6.1-3.5,6.1-3.5c0.4,1.9,2.1,3.2,2.1,3.2c3.9,6.9-0.1,7.7-0.1,7.7
		c0.3-0.3,0-3.5,0-3.5c-3.4,4.4-5.8,3.5-5.8,3.5c0.7-1.2-0.1-3.7-0.1-3.7c-0.8,0.8-1.5,1.4-2.2,1.9c-5.1,3.1-8.7-1.9-8.7-1.9
		c0.1,0,0.1,0,0.2,0C460.7,103.9,464.4,102.1,467.7,100.3 M480.5,91.9c1.6-2.9,1.6-6.1,1.6-6.1h1.7c-0.4,3.7-1.7,5.9-3,7.3
		C480.8,92.6,480.7,92.2,480.5,91.9 M439.4,69.4C439.4,69.4,439.4,69.5,439.4,69.4C439.4,69.5,439.4,69.4,439.4,69.4 M355.8,65.2
		c0-0.2,0-0.5,0-0.7c0-1-0.1-2-0.1-3v-0.1c0-0.8,0-1.7,0.1-2.5c0.2-3,1.2-5.9,3-8.4c0.1-0.1,0.1-0.1,0.1-0.2c0.4-0.5,0.7-1,1.1-1.5
		c0.1-0.1,0.2-0.2,0.3-0.3c0.3-0.4,0.7-0.9,1.1-1.3c0.1-0.1,0.1-0.2,0.2-0.3c0.4-0.5,0.9-1,1.3-1.4c0.1-0.1,0.2-0.2,0.3-0.3
		c0.4-0.4,0.8-0.9,1.3-1.3c0.1-0.1,0.1-0.1,0.2-0.2c0.5-0.5,1-0.9,1.5-1.4c0.1-0.1,0.3-0.2,0.4-0.3c0.5-0.4,1-0.8,1.5-1.3
		c0.1,0,0.1-0.1,0.1-0.1c0.6-0.4,1.1-0.9,1.7-1.3c0.1-0.1,0.3-0.2,0.4-0.3c0.6-0.4,1.2-0.9,1.8-1.3c1.6-1,3.3-2,5-2.9
		c0.8-0.4,1.5-0.7,2.3-1.1c1.2-0.5,3-1.3,5.3-2.2c0.5,4.7,2.5,8.1,4.7,10.4c0.1,0,0.2-0.1,0.2-0.1c-0.1,0-0.1,0.1-0.2,0.1
		c3,3.1,6.3,4.3,6.3,4.3c-5.8-4.8-6.5-13.6-6.5-13.6c10.1,0.5,15.6,4.7,18.7,8.6c2.6,3.3,3.3,6.3,3.3,6.3c-2.8-1.9-5.5-2.3-7.4-2.3
		c-1.9,0-3.1,0.4-3.1,0.4c0.7,0.1,1.4,0.3,2.2,0.6c-1.2,1.4-2.4,3-3.6,5c-0.7,1.1-1.4,2.3-2,3.6c-0.2,0.4-0.4,0.9-0.6,1.3
		c-0.6,1.4-1.2,2.9-1.6,4.4c-0.1,0.5-0.3,1.1-0.4,1.6c-0.4,1.6-0.7,3.3-0.8,5.1c-0.2,2.4-0.2,4.9,0.2,7.5c0.2,1.3,0.4,2.7,0.7,4.1
		c0.2,0.7,0.4,1.4,0.6,2.1c0.4,1.4,0.9,2.9,1.5,4.3c0,0,0,0-0.1,0c-0.1,0-0.1,0-0.2-0.1c-0.4-0.1-1.3-0.4-2.4-0.9
		c-0.5-0.2-1-0.4-1.5-0.6c-0.5-0.2-1.1-0.5-1.6-0.8c-0.3-0.2-0.6-0.3-0.9-0.5c-0.6-0.3-1.2-0.7-1.8-1.1c-0.6-0.4-1.1-0.8-1.5-1.3
		c-0.4-0.4-0.8-0.9-1.1-1.4c-0.1-0.2-0.2-0.5-0.3-0.7c-0.5-1.8-0.8,0.7,0.1,4.9c0.1,0.6,0.3,1.2,0.5,1.9c0.3,1,0.6,2,1,3.1
		c0.4,1.1,0.9,2.2,1.4,3.3c0.5,1.1,1.2,2.2,1.9,3.3c0.5,0.7,1,1.5,1.6,2.2c1.4,1.8,3.1,3.4,5,4.8c1.3,1,2.8,2,4.3,3.2
		c1,0.8,2,1.6,3,2.4c2.1,1.7,4.2,3.5,6.3,5.4c2.1,1.9,4.2,3.9,6.3,5.9c1,1,2,2.1,3,3.1c1.9,2.1,3.8,4.2,5.4,6.3
		c0.8,1.1,1.6,2.1,2.3,3.2c1.5,2.1,2.7,4.2,3.6,6.2c0.8,1.8,1.4,3.5,1.8,5.1c0.3,1.6,0.4,3.2,0.1,4.7c0,0-0.3-0.3-0.8-0.8l0,0
		c-0.9-0.9-2.5-2.4-4.6-4.3c-0.6-0.5-1.2-1-1.8-1.5c-0.6-0.5-1.3-1.1-2-1.6c-0.7-0.6-1.4-1.1-2.2-1.7c-1.9-1.4-3.9-2.9-6-4.2
		c-3.9-2.5-8.1-4.7-12.3-6.1c-1-0.3-1.9-0.6-2.9-0.8c-3.4-0.8-7.7-2.5-12.1-4.8c-1.9-1-3.8-2.1-5.8-3.4c-2.6-1.7-5.1-3.5-7.5-5.6
		c-1.2-1-2.4-2.1-3.5-3.2c-1.2-1.2-2.4-2.5-3.5-3.8c-0.4-0.4-0.7-0.9-1.1-1.3c-0.7-0.9-1.4-1.8-2-2.7c-3.1-4.7-5-9.8-5.2-15.2
		c0-1.2,0-2.3,0.1-3.5c0.5-4,2-7.8,4.4-11.1c1.2-1.6,2.8-3.9,4.7-6.5c3.9-5.2,8.9-11.7,13.2-16.5c0.4-0.4,0.7-0.8,1.1-1.2
		c0.7-0.8,1.4-1.4,2-2.1c0.6-0.6,1.3-1.2,1.8-1.7c0.8-0.7,1.5-1.2,2.1-1.5c0,0,0,0,0,0c-0.7,0.2-3.2,1-6.6,2.7
		c-3.9,1.9-9.1,4.9-14.4,9.3c-4.3,3.7-8.7,8.3-12.5,14.1C356,67.1,355.9,66.2,355.8,65.2 M467.1,44.9c-4.4-4.1-10.3-7.2-13.1-8.5
		c-0.3-0.1-0.5-0.2-0.7-0.3c0,0,0,0,0,0c-0.3-0.4-0.6-0.8-0.9-1.3c0,0,0-0.1-0.1-0.1c-0.2-0.4-0.5-0.8-0.7-1.2
		c-0.1-0.1-0.1-0.3-0.2-0.4c-0.2-0.3-0.3-0.6-0.5-1c-0.1-0.2-0.2-0.5-0.3-0.7c0.1-0.3,0.2-0.6,0.3-0.9c0.3-0.2,0.6-0.4,0.9-0.7h15.9
		v15.8C467.5,45.3,467.3,45.1,467.1,44.9 M426,81.7c0-0.1,0-0.2-0.1-0.3c-0.2-0.2-0.5-0.5-0.8-0.9c-2.4-3.4-4.6-7-6.4-10.8
		c-2.4-5-3-10.4-2.1-15c0.1-0.3,0.1-0.6,0.2-0.9c0.1-7-1.6-12.1-4.4-15.8c-3.2-4.4-7.8-6.9-12.3-8.3c-2.1-0.7-4.2-1.1-6.2-1.4
		c3.9-1.3,7.6-2.2,9.9-2.2c0,0,0-0.1,0-0.2c0-0.1,0-0.2-0.1-0.3c-0.1-0.4-0.3-1-0.8-1.7c-0.2-0.2-0.4-0.5-0.6-0.7
		c-0.2-0.2-0.4-0.4-0.6-0.6c-0.2-0.2-0.5-0.4-0.8-0.6c-0.2-0.2-0.5-0.3-0.7-0.5c-0.3-0.2-0.5-0.3-0.8-0.5c-0.9-0.5-1.9-0.9-3.2-1.4
		c-1.2-0.5-2.7-0.9-4.4-1.3c-0.4-0.1-0.8-0.2-1.3-0.3c-0.6-0.1-1.2-0.2-1.8-0.4c-1.3-0.2-2.6-0.4-4.1-0.6c-0.1,0-0.2,0-0.3,0
		c-0.5-0.1-1-0.1-1.5-0.2c-0.6-0.1-1.2-0.1-1.8-0.2c-0.1,0-0.3,0-0.4,0c-0.5,0-1-0.1-1.5-0.1c-0.5,0-0.6-0.7-0.2-0.9
		c0.1,0,0.2-0.1,0.3-0.1c0.1,0,0.1-0.1,0.2-0.1c0.1,0,0.2-0.1,0.3-0.1c0.1,0,0.1-0.1,0.2-0.1c0.1,0,0.2-0.1,0.2-0.1
		c0.1,0,0.2-0.1,0.3-0.1c0.1,0,0.1-0.1,0.2-0.1c0.1,0,0.2-0.1,0.4-0.1c0.1,0,0.2-0.1,0.2-0.1c0.1,0,0.3-0.1,0.4-0.1
		c0.1,0,0.2-0.1,0.3-0.1c0.1,0,0.3-0.1,0.4-0.1c0.1,0,0.3-0.1,0.4-0.1c0.1,0,0.2-0.1,0.3-0.1c0.1,0,0.3-0.1,0.4-0.1
		c0.1,0,0.2-0.1,0.4-0.1c0.1,0,0.2-0.1,0.3-0.1c0.2,0,0.3-0.1,0.5-0.1c0.2-0.1,0.4-0.1,0.6-0.2c0.1,0,0.2,0,0.2-0.1
		c0.2,0,0.3-0.1,0.5-0.1c0.1,0,0.2-0.1,0.4-0.1c0.2,0,0.4-0.1,0.6-0.1l0.3-0.1c0.2,0,0.3-0.1,0.5-0.1c0.2,0,0.3-0.1,0.5-0.1
		c0.1,0,0.2,0,0.3,0c0.2,0,0.5-0.1,0.7-0.1c0.1,0,0.3,0,0.4-0.1c0.2,0,0.4-0.1,0.5-0.1c0.1,0,0.3,0,0.5-0.1c0.2,0,0.4-0.1,0.5-0.1
		c0.1,0,0.3,0,0.4,0c0.2,0,0.4,0,0.6-0.1c0.1,0,0.3,0,0.4,0c0.2,0,0.4,0,0.6,0c0.1,0,0.3,0,0.4,0c0.2,0,0.4,0,0.7,0
		c0.2,0,0.4,0,0.7,0c0.1,0,0.3,0,0.4,0c0.2,0,0.4,0,0.6,0c0.2,0,0.3,0,0.5,0c0.1,0,1.6,0.1,3.7,0.1c4.6,0.2,8.9,1.9,12.2,4.7
		c3.8,3.1,6.4,7.7,7.1,12.8c0,0.1,0,0.2,0.1,0.3c0.9,7.4,1.7,15.1,1.6,18.3c0.7-2.8,2-5.3,3.9-7.3c0.2-0.3,0.5-0.5,0.8-0.7
		c5.8-5.4,15.8-9.6,21.7-4.2c0.7,0.7,1.7,1.9,2.5,3.1c0.6,0.8,1.2,1.5,1.8,2.2c2.3,2.4,5.1,4.3,8.1,5.6l0.4,0.2
		c2.3,1,4.4,2.2,6.3,3.8c0.6,1.6,0.9,3.4,0.8,5.1c0,0.6,0.2,1.6,0.5,2.1c0.2,0.2,0.4,0.5,0.7,0.6c2.5,1.6,7.7,5.3,12.1,9.4
		c3.4,3.1,6.3,6.6,7.3,9.8c0,0-3.3-0.8-7.3-0.5c-0.7,0.1-1.4,0.1-2,0.3c-0.6,0.1-1.2,0.1-1.8-0.1c-1.8-0.5-5.6-1.9-7-3.6
		c0,0-0.6,3.7,2.4,5.6c0.2,0.2,0.5,0.3,0.8,0.4c0,0,4.7,0.3,6.5,3.7c0.6,1.1,0.9,2.6,0.6,4.5c0,0-0.2,1.1-1.5,2.5
		c-1.1,1.2-3,2.6-6.3,3.7c-1.3,0.4-2.7,0.8-4.4,1.1c-2.5,0.4-5.6,0.7-9.3,0.7c-0.6,0-1.2,0-1.8,0c-0.2,0-0.4,0-0.6,0
		c0,0-6.7-8.4,1.7-13.4c-0.1-0.1-0.3-0.2-0.4-0.2c-2-1.2-4.1-2.1-6.4-2.4c-3.5-0.4-8.5-2.7-11.5-11c0,0.1,0,0.2,0,0.3c0,0,0,0,0,0
		c0-0.3-0.1-0.5-0.1-0.6c0,0,0,0,0-0.1c0,0-0.1,0.7,0,1.9c0.2,2.8,1.3,8.2,6.4,12.4c1.4,1.2,2.2,2.9,2.2,4.8c0,0-5.4-1.7-10.4-4.5
		c-0.3-0.2-0.6-0.3-0.9-0.5c-2.7-1.6-5.1-3.5-6.5-5.8c1.5,3.1,5,8.4,12.5,13.9c1.2,0.9,2.3,1.8,3.4,2.9c1.7,1.7,3.9,4.4,4.6,7.2
		c0.5,2-0.7,3.9-2.6,4.3c-0.3,0.1-0.5,0.1-0.8,0.1c-0.8,0-1.9-0.2-3.1-0.6c0,0,4.2,3.2,9.1,3.9c0,0,2.4,0.8,3.5,1.2
		c2,0.6,4.8,1.7,6.9,3.4c2,1.6,3.4,3.7,2.9,6.4c0,0,0.5,0.1,1.2-0.1c0,0,0.1,0,0.1,0v8.6c0,7.2-1.2,14.1-3.5,20.5
		c-2.4-9.2-7-17.8-13.4-25c-4.5-5.1-9.9-10.8-14.7-14.9c0,0-0.9-2.3,10.8,3.3c0.1,0.1,0.3-0.1,0.2-0.2c-0.7-1.6-4-7.9-17.6-18.4
		c-1-0.8-2-1.5-3.1-2.3c0,0-18.8-13.5-18.2-22.3c0,0,12.1,11.4,17.3,13.3c0,0,0.1,0,0.1,0C425.8,82,425.9,81.8,426,81.7 M405,0
		c-0.3,0-0.6,0-0.9,0c-0.5,0-0.9,0-1.4,0.1c-0.3,0-0.7,0-1,0c-0.5,0-1.1,0.1-1.6,0.1c-0.3,0-0.6,0-0.9,0.1c-1.4,0.1-2.8,0.3-4.3,0.4
		c-0.3,0-0.6,0.1-0.9,0.1c-0.5,0.1-1,0.1-1.6,0.2c-0.3,0.1-0.7,0.1-1.1,0.2c-0.6,0.1-1.1,0.2-1.7,0.3c-0.3,0.1-0.6,0.1-0.9,0.2
		c-0.5,0.1-1,0.2-1.4,0.3c-0.4,0.1-0.8,0.2-1.2,0.3c-0.4,0.1-0.9,0.2-1.3,0.3c-0.5,0.1-0.9,0.2-1.4,0.3c-0.7,0.2-1.5,0.4-2.2,0.6
		c-0.2,0-0.3,0.1-0.5,0.1c-1.7,0.5-3.4,1.1-5.1,1.7c-0.1,0-0.2,0.1-0.2,0.1c-0.7,0.3-1.3,0.5-2,0.8c-0.2,0.1-0.5,0.2-0.7,0.3
		c-0.8,0.4-1.7,0.7-2.5,1.1c-0.1,0-0.1,0.1-0.2,0.1c-1.8,0.9-3.5,1.8-5.2,2.8c-1.7,1-3.4,2.2-5,3.4c-0.2,0.1-0.3,0.3-0.5,0.4
		c-0.6,0.5-1.3,1-1.9,1.5c-0.2,0.2-0.5,0.4-0.7,0.6c-0.1,0.1-0.3,0.2-0.4,0.3c-0.4,0.4-0.8,0.7-1.3,1.1c-0.1,0.1-0.3,0.3-0.4,0.4
		c-0.6,0.6-1.2,1.2-1.8,1.8v0l0,0c-0.2,0.2-0.1,0.5,0.2,0.6c0.1,0,0.2,0,0.3,0c0.1,0,0.2,0,0.3,0c0.1,0,0.3,0,0.5,0
		c0.1,0,0.2,0,0.3,0c0.2,0,0.4,0,0.6,0c0.1,0,0.2,0,0.3,0c0.3,0,0.7,0.1,1,0.1c0,0,0,0,0,0c0.5,0.1,1.1,0.1,1.7,0.2
		c0.1,0,0.1,0,0.2,0c0.7,0.1,1.3,0.2,2,0.3c0,0,0,0,0,0c0.4,0.1,0.8,0.1,1.3,0.2c0,0,0.1,0,0.1,0c0.2,0,0.4,0.1,0.5,0.1
		c0,0,0.1,0,0.1,0c0.2,0,0.4,0.1,0.6,0.1c0,0,0.1,0,0.1,0c0.2,0,0.4,0.1,0.6,0.1c0,0,0,0,0.1,0c0.2,0,0.4,0.1,0.6,0.1
		c0,0,0.1,0,0.1,0c0.2,0,0.3,0.1,0.5,0.1c0,0,0.1,0,0.1,0c0.1,0,0.3,0.1,0.4,0.1c0.1,0,0.1,0,0.2,0.1c0.1,0,0.2,0.1,0.3,0.1
		c0.1,0,0.2,0.1,0.3,0.1c0.1,0,0.3,0.1,0.4,0.1c0.1,0,0.1,0,0.2,0.1c0.1,0.1,0.3,0.1,0.4,0.2c0,0,0.1,0,0.1,0c0.1,0,0.2,0.1,0.3,0.1
		c0.1,0,0.1,0.1,0.2,0.1c0.3,0.1,0.6,0.3,0.8,0.5c0,0,0,0,0,0c0.1,0.1,0.2,0.2,0.3,0.3c0,0,0,0,0,0c0.1,0.1,0.2,0.1,0.2,0.2
		c0,0,0.1,0,0.1,0.1c0.1,0.1,0.1,0.1,0.2,0.2c0,0,0.1,0.1,0.1,0.1c0.1,0.1,0.1,0.1,0.1,0.2c0,0,0,0.1,0.1,0.1
		c0.1,0.1,0.1,0.2,0.1,0.3c0.1,0.2,0,0.4-0.1,0.5c-0.2,0.2-0.5,0.4-0.9,0.5c-0.2,0.1-0.5,0.2-0.7,0.2c-0.3,0.1-0.6,0.2-1,0.2
		c-0.4,0.1-0.8,0.2-1.2,0.2c-0.3,0.1-0.6,0.1-0.9,0.2c-0.4,0.1-0.8,0.1-1.2,0.2c-1.7,0.3-3.6,0.7-5.7,1.2c-0.7,0.2-1.4,0.3-2.2,0.5
		c-0.3,0.1-0.5,0.1-0.8,0.2c-0.1,0-0.3,0.1-0.4,0.1c-0.7,0.2-1.3,0.4-2,0.6c-0.9,0.3-1.8,0.6-2.7,1c-0.5,0.2-1,0.4-1.5,0.6
		c-0.6,0.2-1.1,0.5-1.7,0.7c-1,0.4-2,0.9-2.9,1.5c-0.2,0.1-0.5,0.2-0.7,0.4c-0.1,0.1-0.2,0.1-0.4,0.2c-0.9,0.5-1.9,1.1-2.8,1.8
		c-1,0.7-2,1.4-3,2.2c-0.1,0-0.1,0.1-0.2,0.1c-0.1,0.1-0.1,0.1-0.2,0.2c-1,0.8-1.9,1.7-2.9,2.6c-0.5,0.5-0.9,0.9-1.4,1.4
		c-0.4,0.5-0.9,1-1.3,1.5c-0.1,0.1-0.2,0.2-0.3,0.3c-0.1,0.1-0.2,0.2-0.2,0.3c-0.4,0.5-0.7,0.9-1.1,1.4c-0.3,0.4-0.6,0.8-0.9,1.3
		c-0.6,0.9-1.2,1.8-1.8,2.7c-0.9,1.4-1.7,2.9-2.5,4.5c-0.3,0.7-0.7,1.4-1,2.2c-0.4,1-0.9,2.1-1.3,3.3c0,0.1-0.1,0.2-0.1,0.3
		c-0.6,1.7-1.2,3.5-1.7,5.4c0,0.1-0.1,0.2-0.1,0.3c-0.1,0.3,0.3,0.6,0.5,0.4c0.2-0.2,0.5-0.3,0.8-0.6c0.1-0.1,0.2-0.1,0.3-0.2
		c0,0,0,0,0,0c0.4-0.3,0.9-0.6,1.4-1c0,0,0.1-0.1,0.1-0.1c0.1-0.1,0.2-0.1,0.3-0.2c0.1-0.1,0.2-0.1,0.3-0.2c0.3-0.2,0.7-0.5,1.1-0.7
		c0.1,0,0.1-0.1,0.2-0.1c0.1-0.1,0.2-0.1,0.3-0.2c0.1-0.1,0.3-0.2,0.4-0.2c0.4-0.3,0.8-0.5,1.3-0.8c0,0,0.1,0,0.1-0.1
		c0.2-0.1,0.4-0.2,0.6-0.3c0.1,0,0.1-0.1,0.2-0.1c0.4-0.2,0.9-0.5,1.3-0.7c0.1,0,0.1-0.1,0.2-0.1c0.2-0.1,0.3-0.2,0.5-0.3
		c0.1,0,0.2-0.1,0.2-0.1c0.3-0.2,0.6-0.3,0.9-0.5c0.1-0.1,0.2-0.1,0.3-0.2c0.1,0,0.2-0.1,0.3-0.1c0.1-0.1,0.2-0.1,0.3-0.2
		c0.1-0.1,0.3-0.1,0.4-0.2c0.2-0.1,0.3-0.2,0.5-0.2c0.1,0,0.2-0.1,0.2-0.1c0.1-0.1,0.3-0.1,0.4-0.2c0.1,0,0.2-0.1,0.3-0.1
		c0.1,0,0.2-0.1,0.3-0.1c0.1-0.1,0.3-0.1,0.4-0.2c0.1-0.1,0.2-0.1,0.4-0.1c0.1,0,0.2-0.1,0.3-0.1c0.2-0.1,0.4-0.1,0.6-0.2
		c0,0,0.1,0,0.1,0c0.1,0,0.3-0.1,0.4-0.1c0.1,0,0.1,0,0.2-0.1c0.2,0,0.3-0.1,0.5-0.1c0,0,0.1,0,0.1,0c0.2,0,0.4-0.1,0.5-0.1
		c0,0,0,0,0.1,0c0.1,0,0.2,0,0.4,0c0.1,0,0.1,0,0.2,0c0.1,0,0.2,0,0.2,0c0.1,0,0.2,0,0.3,0c0.1,0,0.2,0,0.3,0c0.1,0,0.1,0,0.2,0
		c0.1,0,0.2,0,0.3,0.1c0,0,0.1,0,0.1,0c0.1,0,0.3,0.1,0.4,0.2c1.9,1-3,3.4-9.1,9.2c-6.7,6.5-14.7,17.1-16.8,34.7
		c-0.6,5.3-0.2,10.5,1,15.5c0.4,1.7,1,3.3,1.6,4.9c0.3,0.8,0.7,1.6,1,2.4c0.7,1.5,1.6,3,2.5,4.5c0.5,0.7,0.9,1.4,1.4,2.1
		c1,1.4,2.1,2.7,3.3,4c1.2,1.2,2.5,2.4,3.9,3.5c1,0.8,2.1,1.5,3.2,2.2c0.3,0.2,0.6,0.4,0.8,0.6h0c0.2,0.1,0.5,0.3,0.7,0.4
		c0.3,0.1,0.5,0.3,0.7,0.4c0.9,0.5,1.9,1,3,1.5c0.1,0,0.1,0.1,0.2,0.1c1.1,0.5,2.2,0.9,3.4,1.3c0.3,0.1,0.5-0.2,0.3-0.4
		c0-0.1-0.1-0.1-0.1-0.2c0,0,0-0.1-0.1-0.1c-0.1-0.1-0.1-0.2-0.2-0.4c0,0,0,0,0,0c-0.1-0.1-0.1-0.2-0.2-0.3c0-0.1-0.1-0.1-0.1-0.2
		c-0.1-0.1-0.2-0.3-0.2-0.4c0,0,0-0.1-0.1-0.1c-0.2-0.3-0.4-0.7-0.6-1.1c0-0.1-0.1-0.1-0.1-0.2c-0.1-0.2-0.2-0.3-0.3-0.5
		c0-0.1-0.1-0.1-0.1-0.2c-0.1-0.1-0.1-0.3-0.2-0.4c-0.1-0.1-0.1-0.2-0.2-0.3c-0.1-0.1-0.1-0.3-0.2-0.4c-0.1-0.1-0.1-0.3-0.2-0.4
		c-0.1-0.1-0.1-0.3-0.2-0.4c-0.1-0.2-0.1-0.3-0.2-0.5c-0.1-0.1-0.1-0.3-0.2-0.4c-0.1-0.2-0.1-0.3-0.2-0.5c-0.1-0.1-0.1-0.3-0.2-0.4
		c-0.1-0.2-0.1-0.3-0.2-0.5c-0.1-0.2-0.1-0.3-0.2-0.5c-0.1-0.2-0.1-0.4-0.2-0.5c-0.1-0.2-0.1-0.3-0.2-0.5c-0.1-0.2-0.1-0.4-0.2-0.6
		c-0.1-0.1-0.1-0.3-0.2-0.5c-0.1-0.2-0.1-0.4-0.2-0.6c-0.1-0.2-0.1-0.4-0.2-0.5c-0.1-0.2-0.1-0.4-0.2-0.6c-0.1-0.2-0.1-0.4-0.2-0.5
		c-0.1-0.2-0.1-0.4-0.2-0.6c-0.1-0.2-0.1-0.4-0.2-0.6c-0.1-0.2-0.1-0.4-0.2-0.6c-0.1-0.2-0.1-0.4-0.2-0.6c0-0.2-0.1-0.4-0.1-0.6
		c0-0.2-0.1-0.3-0.1-0.5c-0.1-0.2-0.1-0.5-0.2-0.7c0-0.1-0.1-0.3-0.1-0.4c-0.1-0.3-0.1-0.5-0.1-0.8c0-0.2-0.1-0.4-0.1-0.6
		c0-0.2-0.1-0.5-0.1-0.7c0-0.2,0-0.4-0.1-0.5c0-0.3-0.1-0.5-0.1-0.7c0-0.2,0-0.3,0-0.5c0-0.3,0-0.5-0.1-0.8c0-0.2,0-0.3,0-0.5
		c0-0.3,0-0.5,0-0.8c0-0.2,0-0.4,0-0.6c0-0.2,0-0.4,0-0.7c0-0.2,0-0.5,0-0.7c0-0.2,0-0.4,0-0.6c0-0.2,0-0.5,0-0.7c0-0.2,0-0.4,0-0.6
		c0-0.4,0.1-0.8,0.1-1.2c0,0,0-0.1,0-0.1c0.1-0.4,0.1-0.8,0.2-1.2c0-0.1,0-0.1,0-0.2c0.1-0.3,0.1-0.6,0.2-0.9c0-0.1,0.1-0.3,0.1-0.4
		c0.1-0.4,0.2-0.9,0.4-1.3c0,0,0,0,0,0.1c0,0,0,0,0,0.1c0,0,0,0.1,0,0.1c0,0,0,0.1,0,0.1c0,0.1,0,0.1,0.1,0.2c0,0.1,0,0.1,0.1,0.2
		c0,0.1,0.1,0.2,0.1,0.3c0,0.1,0.1,0.1,0.1,0.2c0,0.1,0.1,0.2,0.1,0.3c0,0.1,0.1,0.2,0.1,0.2c0.1,0.1,0.1,0.3,0.2,0.4
		c0,0.1,0.1,0.2,0.1,0.2c0.1,0.2,0.2,0.5,0.3,0.7c0,0,0,0,0,0c0.1,0.3,0.3,0.6,0.4,0.9c0,0.1,0.1,0.2,0.1,0.3
		c0.1,0.2,0.2,0.4,0.3,0.6c0.1,0.1,0.1,0.3,0.2,0.4c0.1,0.2,0.2,0.4,0.3,0.6c0.1,0.1,0.1,0.3,0.2,0.4c0.1,0.2,0.2,0.4,0.4,0.7
		c0.1,0.2,0.2,0.3,0.3,0.5c0.1,0.2,0.3,0.5,0.4,0.7c0.1,0.2,0.2,0.3,0.3,0.5c0.2,0.3,0.3,0.5,0.5,0.8c0.1,0.1,0.2,0.3,0.3,0.4
		c0.2,0.4,0.5,0.8,0.8,1.2c0,0,0,0.1,0.1,0.1c0.3,0.4,0.6,0.8,0.9,1.3c0.1,0.1,0.2,0.3,0.3,0.4c0.2,0.3,0.4,0.6,0.7,0.9
		c0.1,0.2,0.3,0.3,0.4,0.5c0.2,0.3,0.4,0.5,0.7,0.8c0,0,0,0,0.1,0.1c0.1,0.2,0.3,0.3,0.4,0.5c0.2,0.3,0.5,0.5,0.7,0.8
		c0.2,0.2,0.3,0.4,0.5,0.6c0.3,0.3,0.5,0.6,0.8,0.8c0.2,0.2,0.3,0.4,0.5,0.5c0.3,0.3,0.6,0.6,0.9,0.9c0.2,0.2,0.3,0.3,0.5,0.5
		c0.4,0.4,0.9,0.8,1.3,1.2c0.1,0.1,0.1,0.1,0.2,0.1c0.5,0.5,1,0.9,1.6,1.3c0.2,0.1,0.3,0.3,0.5,0.4c0.4,0.3,0.8,0.6,1.2,0.9
		c0.2,0.2,0.4,0.3,0.7,0.5c0.4,0.3,0.7,0.5,1.1,0.8c0.2,0.2,0.5,0.3,0.7,0.5c0.4,0.3,0.8,0.5,1.2,0.8c0.3,0.2,0.5,0.3,0.8,0.5
		c0.4,0.3,0.8,0.5,1.2,0.7c0.3,0.2,0.5,0.3,0.8,0.5c0.5,0.3,0.9,0.5,1.4,0.8c0.3,0.1,0.5,0.3,0.8,0.4c0.6,0.3,1.3,0.7,2,1
		c0.1,0,0.2,0.1,0.3,0.1c0,0,0,0,0,0c0.7,0.3,1.4,0.6,2,0.9c2.8,1.2,5.7,2.2,8.9,3.1c1,0.3,2,0.4,3.1,0.6c0.7,0.1,1.5,0.2,2.6,0.3
		c0,0,0,0,0,0c0.3,0,0.6,0.1,0.9,0.1c0.1,0,0.2,0,0.3,0.1c0.2,0,0.5,0.1,0.8,0.1c0.1,0,0.3,0.1,0.4,0.1c0.2,0,0.5,0.1,0.7,0.1
		c0.2,0,0.3,0.1,0.5,0.1c0.2,0,0.5,0.1,0.7,0.1c0.2,0,0.4,0.1,0.5,0.1c0.3,0,0.5,0.1,0.8,0.2c0.2,0,0.4,0.1,0.6,0.1
		c0.3,0.1,0.5,0.1,0.8,0.2c0.2,0,0.4,0.1,0.6,0.1c0.3,0.1,0.6,0.1,0.9,0.2c0.2,0,0.4,0.1,0.6,0.1c0.3,0.1,0.7,0.2,1,0.3
		c0.2,0,0.3,0.1,0.5,0.1c0.4,0.1,0.9,0.2,1.3,0.4c0.1,0,0.1,0,0.2,0.1c0.5,0.1,1.1,0.3,1.6,0.5c0.2,0,0.3,0.1,0.5,0.1
		c0.4,0.1,0.8,0.2,1.2,0.4c0.2,0.1,0.4,0.1,0.6,0.2c0.3,0.1,0.7,0.2,1,0.3c0.2,0.1,0.5,0.2,0.7,0.2c0.3,0.1,0.7,0.2,1,0.4
		c0.2,0.1,0.5,0.2,0.7,0.3c0.3,0.1,0.7,0.2,1,0.4c0.2,0.1,0.5,0.2,0.7,0.3c0.3,0.1,0.7,0.3,1,0.4c0.2,0.1,0.5,0.2,0.7,0.3
		c0.3,0.1,0.7,0.3,1,0.4c0.2,0.1,0.5,0.2,0.7,0.3c0.4,0.2,0.7,0.3,1.1,0.5c0.2,0.1,0.4,0.2,0.6,0.3c0.4,0.2,0.8,0.4,1.3,0.6
		c0.1,0.1,0.3,0.1,0.5,0.2c0.6,0.3,1.1,0.6,1.7,0.9c0.1,0.1,0.2,0.1,0.3,0.2c0.4,0.2,0.9,0.5,1.3,0.8c0.2,0.1,0.4,0.2,0.6,0.4
		c0.4,0.2,0.7,0.4,1.1,0.7c0.2,0.1,0.4,0.3,0.6,0.4c0.3,0.2,0.6,0.4,1,0.7c0.2,0.2,0.4,0.3,0.7,0.5c0.3,0.2,0.6,0.4,0.9,0.7
		c0.2,0.2,0.4,0.3,0.6,0.5c0.3,0.2,0.6,0.5,0.9,0.7c0.2,0.2,0.4,0.3,0.6,0.5c0.3,0.2,0.6,0.5,0.9,0.8c0.2,0.2,0.4,0.4,0.6,0.5
		c0.3,0.3,0.6,0.5,0.9,0.8c0.2,0.2,0.4,0.4,0.5,0.5c0.3,0.3,0.6,0.6,0.9,1c0.1,0.2,0.3,0.3,0.4,0.5c0.4,0.5,0.9,1,1.3,1.5
		c0,0,0,0.1,0.1,0.1c0.4,0.5,0.8,1,1.2,1.6c0.8,1.2,1.7,2.3,2.6,3.4c0.8,0.9,1.8,2.2,3,3.8c0.4,0.5,0.8,1,1.2,1.6
		c0.8,1.1,1.6,2.2,2.4,3.5c-3.2,1.7-6.6,3.1-10.1,4.3c-1.1-1.2-2.3-2.4-3.7-3.7c-1-1-2.1-2-3.3-3c-0.6-0.5-1.2-1-1.8-1.5
		c-1.2-1-2.5-2.1-3.9-3.1c-2.1-1.5-4.3-3.1-6.6-4.5c-3.7-2.3-7.8-4.5-12.2-6.2c-5.7-2.2-11.8-3.8-18.4-4.4c-1.1-0.1-2.1-0.2-3.1-0.3
		c-1-0.1-2-0.2-3-0.3c-0.7-0.1-1.5-0.2-2.2-0.3c-1.4-0.2-2.9-0.4-4.2-0.6c-0.7-0.1-1.4-0.2-2-0.3c-1.8-0.3-3.5-0.6-5.1-0.9
		c-1.4-0.3-2.7-0.6-3.9-0.9c-0.3-0.1-0.6-0.1-0.8-0.2c-1.7-0.4-3.4-0.8-4.9-1.3c-0.2-0.1-0.5-0.1-0.7-0.2c-0.8-0.2-1.6-0.5-2.3-0.7
		c-0.4-0.1-0.9-0.3-1.3-0.4c-1-0.3-1.9-0.6-2.7-0.9c-0.3-0.1-0.5-0.2-0.8-0.3c-0.9-0.3-1.7-0.6-2.5-0.9c1.5,4.6,3.5,8.9,5.9,13
		c12.9,22.5,37.1,37.7,64.9,37.7c4.2,0,8.4-0.4,12.4-1c4.6-0.8,9-1.9,13.2-3.5c3.4-1.3,6.8-2.8,10-4.5c2.9-1.6,5.7-3.3,8.3-5.3
		c3.3-2.4,6.5-5.1,9.3-8.1c2.3-2.3,4.5-4.8,6.5-7.5c9.4-12.5,15-28.1,15-44.9v-17.7c0.8-1.8,1.4-3.8,1.1-5.9c-0.1-1-0.5-2-1.1-2.9
		v-3.3c0.4-0.3,0.8-0.6,1.3-1c2.1-1.9,4.5-5.5,5.4-12.3c0,0,7.9-0.3,5.5-7.6c0,0-0.2-0.3-0.5-0.9c-0.4-0.6-1-1.5-1.8-2.6
		c-1.5-2.1-3.7-4.9-6.5-7.9c-0.4-0.4-0.8-0.9-1.3-1.3c-0.7-0.7-1.4-1.3-2.1-2V16.9h-27.6c-0.1-0.2-0.1-0.3-0.1-0.3
		c0,0.1,0,0.2,0,0.3c-0.7,8.1-3.1,10-4.3,10.4c-0.2-0.2-0.3-0.4-0.5-0.5c1.6-3.9,2.1-7.2,1.8-9.9c-1.1-10.7-14-12.7-14-12.7
		c7.7,3,9.5,8.1,9.3,12.7c-0.1,2.7-1,5.1-1.8,7c-0.1-0.1-0.3-0.1-0.4-0.2c-0.2-0.1-0.4-0.2-0.6-0.3c-0.3-0.1-0.7-0.3-1.1-0.4
		c-0.2-0.1-0.4-0.1-0.6-0.2c-0.5-0.2-1.1-0.3-1.6-0.5c0,0,0,0,0,0c0.1,0,0.1,0,0.2-0.1c0,0-0.1-0.1-0.3-0.4c0-0.1-0.1-0.1-0.1-0.2
		c-0.1-0.1-0.1-0.2-0.2-0.3c0-0.1-0.1-0.1-0.1-0.2c-0.1-0.1-0.2-0.3-0.3-0.4c-0.1-0.1-0.1-0.2-0.2-0.4c-0.1-0.1-0.2-0.3-0.3-0.4
		c-0.1-0.1-0.2-0.3-0.3-0.4c-0.1-0.2-0.2-0.3-0.3-0.5c-0.1-0.1-0.2-0.3-0.3-0.4c-0.1-0.2-0.2-0.4-0.4-0.6c-0.1-0.2-0.2-0.3-0.3-0.5
		c-0.1-0.2-0.3-0.4-0.4-0.7c0,0,0,0,0,0c-0.1-0.2-0.2-0.4-0.3-0.6c-0.1-0.2-0.3-0.5-0.4-0.7c-0.1-0.2-0.2-0.4-0.3-0.6
		c-0.1-0.2-0.3-0.5-0.4-0.7c-0.1-0.2-0.2-0.4-0.3-0.6c-0.1-0.3-0.3-0.5-0.4-0.8c-0.1-0.2-0.2-0.5-0.3-0.7c-0.1-0.3-0.3-0.5-0.4-0.8
		c-0.1-0.2-0.2-0.5-0.3-0.7c-0.1-0.3-0.2-0.5-0.4-0.8c-0.1-0.2-0.2-0.5-0.3-0.7c-0.1-0.3-0.2-0.5-0.3-0.8c-0.1-0.2-0.2-0.5-0.3-0.7
		c-0.1-0.3-0.2-0.5-0.3-0.8c-0.1-0.2-0.2-0.5-0.2-0.7c-0.1-0.3-0.2-0.6-0.3-0.9c-0.5-1.6-1.8-2.9-3.4-3.5c0,0-0.1,0-0.1-0.1
		c-0.2-0.1-0.4-0.1-0.6-0.1c-0.1,0-0.1,0-0.2,0h0c0,0-0.1,0-0.1,0c-0.3-0.1-0.7-0.1-1.1-0.2c0,0,0,0-0.1,0c-0.4-0.1-0.8-0.1-1.2-0.2
		c-0.1,0-0.2,0-0.2,0c-0.4-0.1-0.8-0.1-1.2-0.2c-0.1,0-0.3,0-0.5-0.1c-0.4-0.1-0.7-0.1-1.1-0.1c-0.3,0-0.7-0.1-1-0.1
		c-0.2,0-0.5-0.1-0.7-0.1c-0.4,0-0.9-0.1-1.3-0.1c-0.2,0-0.3,0-0.5,0c-0.5,0-1-0.1-1.5-0.1c-0.1,0-0.3,0-0.4,0
		c-0.5,0-1.1-0.1-1.7-0.1c-0.1,0-0.2,0-0.3,0c-0.7,0-1.3-0.1-2-0.1c0,0-0.1,0-0.1,0c-0.5,0-1.1,0-1.6,0c-0.2,0-0.4,0-0.6,0
		c-0.6,0-1.2,0-1.8,0c-0.2,0-0.4,0-0.5,0C406,0,405.5,0,405,0"/>
</g>
</svg>
